<svg width="60" height="54" viewBox="0 0 60 54" fill="none" xmlns="http://www.w3.org/2000/svg">
<circle cx="22.2607" cy="8.26066" r="8.26066" fill="#D91A82"/>
<path d="M59.7376 22.054C59.2811 20.2924 58.3681 19.0528 57.1942 18.4656C56.542 18.1394 55.7594 18.0089 55.0421 18.0742C55.8247 16.1168 55.3681 13.8986 53.9334 12.3979C52.303 10.4406 49.6292 9.6577 47.2162 10.5059C47.2814 8.80953 46.1075 7.11319 44.6076 6.06929C43.1076 5.02539 40.6946 4.37295 38.8034 5.74307C38.4121 4.96015 37.7599 4.30771 36.9773 3.91624C34.4991 2.54612 29.8688 2.74185 27.3254 4.30771C26.608 4.69917 26.0863 5.28636 25.695 6.00405C24.7168 5.41685 23.5429 5.15588 22.4342 5.28636C20.3473 5.41685 18.5213 6.46075 17.2822 8.15709C11.9345 6.91746 8.15197 8.22234 6.45636 11.876C2.15212 13.9638 0 17.8132 0 23.2937C0 26.7516 0.91302 29.2961 2.80428 30.9272C4.30424 32.2973 6.45636 33.015 9.1302 33.015C9.58671 33.015 10.0432 33.015 10.4997 32.9498C10.3041 36.6687 13.2388 40.6485 16.2387 41.9534C22.3038 44.5632 29.2819 42.2796 32.2166 41.3662L32.6731 41.2357C34.3687 40.7138 35.7382 40.8443 36.8469 41.6924C40.4338 44.3674 40.499 52.7839 40.499 52.8491C40.499 53.2406 40.7598 53.5016 41.1511 53.5016H50.0205C50.2161 53.5016 50.3465 53.4363 50.477 53.3058C50.6074 53.1754 50.6726 52.9796 50.6726 52.8491C50.6074 49.7174 50.2161 46.651 49.4987 43.6497C59.0202 38.6912 59.2159 33.2107 57.5203 29.2961C59.6072 27.4693 60.455 24.6638 59.7376 22.054ZM53.7378 31.4491C54.716 31.1882 55.629 30.7315 56.4768 30.1443C58.2376 34.6461 55.7594 38.8217 49.2379 42.3449C49.1727 42.0839 49.1074 41.8229 49.0422 41.5619L48.977 41.2357C48.5857 39.8004 48.3249 38.8869 48.3249 38.8217C48.2596 38.4955 47.8683 38.2345 47.5423 38.2998C47.2162 38.365 46.9553 38.7565 47.0205 39.0827C47.0205 39.1479 47.0205 39.1479 47.0858 39.2132C47.0858 39.2132 47.3466 40.1266 47.7379 41.5619L47.8031 41.8882C47.9336 42.3449 48.064 42.8668 48.1944 43.454C48.8466 46.3247 49.3031 49.2607 49.4335 52.1967H41.8685C41.8033 50.0436 41.2163 43.2583 37.6947 40.6485C36.1947 39.5394 34.4339 39.3437 32.347 39.9961L31.8905 40.1266C29.021 41.04 22.369 43.193 16.7604 40.779C14.1518 39.6699 11.478 36.0815 11.804 32.8845C13.5649 32.6235 15.2605 32.1668 16.8909 31.5796C17.217 31.4491 17.4126 31.0577 17.2822 30.7315C17.1517 30.4052 16.7604 30.2095 16.4344 30.4052C15.0648 30.9272 13.6301 31.3187 12.1301 31.5796C12.4562 30.7967 12.9779 30.079 13.6953 29.4918C13.9562 29.2961 14.0214 28.9046 13.8257 28.5784C13.6301 28.3174 13.2388 28.2522 12.9127 28.4479L12.8475 28.5132C11.804 29.3613 11.0867 30.4705 10.6954 31.7754C7.63024 32.1016 5.28247 31.5144 3.65208 30.1443C2.02169 28.7741 1.30431 26.3601 1.30431 23.2937C1.30431 18.9223 2.80428 15.6601 5.8042 13.7028C5.54334 14.7467 5.41291 15.7906 5.41291 16.8345C5.41291 17.226 5.67377 17.487 6.06506 17.487C6.45636 17.487 6.71722 17.226 6.71722 16.8345C6.71722 15.3992 6.97808 14.029 7.43459 12.6589L7.49981 12.5937C9.26063 8.41807 13.891 8.6138 17.4126 9.52721C18.6517 9.85343 19.8256 10.2449 20.9995 10.7668C21.3255 10.8973 21.7168 10.7668 21.8473 10.4406C21.9777 10.1144 21.8473 9.72295 21.5212 9.59246C20.543 9.13575 19.5647 8.80953 18.5865 8.54856C19.5647 7.43941 20.9995 6.72173 22.4994 6.59124C23.6081 6.39551 24.782 6.78697 25.5646 7.70039C25.7602 7.96136 26.0211 8.02661 26.2819 7.96136C26.5428 7.89612 26.7384 7.5699 26.7384 7.30892C26.7384 6.65649 27.1297 6.00405 27.9775 5.4821C30.1949 4.11198 34.2383 3.91624 36.3252 5.09063C37.1077 5.4821 37.6295 6.26502 37.6295 7.11319C37.6295 7.50466 37.9556 7.76563 38.2816 7.76563C38.4773 7.76563 38.6729 7.70039 38.8034 7.50466C40.2381 5.74307 42.325 6.19978 43.7598 7.17844C45.1945 8.15709 46.3684 10.0492 45.5858 11.4193C45.4554 11.6803 45.4554 12.0065 45.7162 12.2022C45.9771 12.3979 46.3032 12.4632 46.564 12.2022C46.564 12.2022 50.1509 10.1144 52.89 13.3114C54.3247 14.7467 54.4551 17.0303 53.2812 18.6614C53.216 18.7918 53.1508 18.9223 53.1508 19.0528V19.1181C53.1508 19.1181 53.1508 19.1181 53.1508 19.1833C53.1508 19.2485 53.216 19.3138 53.216 19.379C53.2812 19.4443 53.2812 19.5095 53.3465 19.5748C53.4117 19.64 53.4769 19.64 53.5421 19.64C53.6073 19.64 53.6725 19.7053 53.7378 19.7053C53.8682 19.7053 53.9334 19.7053 54.0638 19.64C54.8464 19.3138 55.7594 19.3138 56.6073 19.64C57.4551 20.0315 58.1072 21.0101 58.4985 22.3803C59.1507 24.729 58.4333 26.8168 56.3464 28.5132C55.5638 29.1656 54.6508 29.6876 53.6725 30.079C53.2812 30.079 53.0204 30.4052 53.0856 30.7967C53.1508 31.1882 53.4117 31.4491 53.803 31.3839L53.7378 31.4491Z" fill="white"/>
<path d="M25.3692 10.5058C25.2387 10.1796 24.8474 9.98387 24.5214 10.1144C24.1953 10.2448 23.9996 10.6363 24.1301 10.9625C25.2387 13.8333 23.9996 15.4644 22.5649 15.9863C20.7388 16.704 18.3259 15.7906 17.152 12.7894C17.0868 12.4631 16.6955 12.2674 16.3694 12.3327C16.0433 12.3979 15.8477 12.7894 15.9129 13.1156C15.9129 13.1808 15.9129 13.1808 15.9781 13.2461C17.0868 16.182 19.3693 17.4869 21.391 17.4869C21.9779 17.4869 22.4997 17.3564 23.0214 17.1607C25.1735 16.443 26.7387 13.9637 25.3692 10.5058Z" fill="white"/>
<path d="M43.0427 32.2973C41.8688 33.0802 41.0863 34.3199 40.9558 35.69C40.8254 37.3863 41.2819 39.1479 42.3254 40.518C42.4558 40.7138 42.6514 40.779 42.8471 40.779C42.9775 40.779 43.1079 40.7138 43.2384 40.6485C43.5645 40.4528 43.6297 40.0613 43.434 39.7351C42.5862 38.626 42.1297 37.2558 42.2601 35.8205C42.3906 34.7766 42.9775 33.8632 43.8253 33.276C45.7166 31.9711 48.9774 32.2973 51.1295 35.4943C51.3251 35.8205 51.7164 35.8857 52.0425 35.69C52.3686 35.4943 52.4338 35.1028 52.1729 34.7766C49.4991 30.9272 45.4557 30.601 43.0427 32.2973Z" fill="white"/>
<path d="M36.7161 32.2974C33.7162 33.6675 30.1293 33.3413 27.3903 31.5144C25.6947 30.34 24.7164 28.8394 24.7816 27.4693C24.8469 26.3602 25.6947 25.3815 27.1294 24.5986C27.912 25.251 28.825 25.5772 29.8685 25.5772H29.9989C31.4989 25.6425 32.9336 24.7943 33.7162 23.4894C33.9771 23.2285 33.9118 22.837 33.651 22.576C33.3901 22.3151 32.9988 22.3803 32.738 22.6413C32.6727 22.7065 32.6075 22.7718 32.6075 22.9022C32.0206 23.8157 31.0424 24.3376 29.9989 24.2724C29.0859 24.3376 28.2381 23.9461 27.7164 23.2285C27.2598 22.4455 27.4555 21.3364 28.3033 19.9663C28.4989 19.6401 28.3685 19.2486 28.1076 19.0529C27.7816 18.8571 27.3903 18.9876 27.1946 19.2486C25.9555 21.2059 26.0207 22.6413 26.412 23.4894C24.1947 24.7291 23.6078 26.2297 23.5425 27.3388C23.4121 29.1657 24.586 31.123 26.6729 32.5583C28.4989 33.798 30.7163 34.4504 32.8684 34.4504C34.3684 34.4504 35.8683 34.1242 37.2378 33.4718C37.5639 33.3413 37.6944 32.9498 37.5639 32.6236C37.4335 32.2321 37.0422 32.1016 36.7161 32.2974Z" fill="white"/>
<path d="M15.5215 23.4894C12.5868 21.9235 8.99994 22.9022 7.30433 25.7729C7.10868 26.0991 7.23911 26.4906 7.56519 26.6863C7.89127 26.8821 8.28256 26.7516 8.47821 26.4254C9.84774 24.2071 12.652 23.4241 14.9346 24.5985C15.6519 25.0552 16.6954 26.0339 15.5867 27.926C15.3911 28.2522 15.4563 28.6437 15.7824 28.8394C15.9128 28.9046 15.978 28.9046 16.1084 28.9046C16.3693 28.9046 16.565 28.7741 16.6954 28.5784C17.8041 26.6211 17.3475 24.5985 15.5215 23.4894Z" fill="white"/>
<path d="M42.5206 18.4004C44.6075 20.6839 45.7814 24.2723 43.8249 27.0778C43.5641 27.4692 43.238 27.8607 42.8467 28.1869C42.5858 28.4479 42.5858 28.8394 42.7815 29.1003C42.9119 29.2308 43.1076 29.2961 43.238 29.2961C43.3684 29.2961 43.5641 29.2308 43.6945 29.1003C44.151 28.7089 44.5423 28.2522 44.8684 27.7955C46.7597 25.0552 46.2379 21.8583 44.738 19.2485C44.9336 19.2485 45.064 19.3138 45.2597 19.3138C46.1075 19.3138 46.9553 19.0528 47.6727 18.5961C47.9988 18.4656 48.1944 18.0741 48.064 17.7479C47.9335 17.4217 47.5422 17.226 47.2162 17.3565C47.151 17.3565 47.0857 17.4217 47.0205 17.4869C45.9119 18.2046 44.4119 18.1394 43.3032 17.3565C42.9119 16.965 42.5206 16.5735 42.0641 16.1821C41.1511 15.0729 40.6946 13.7028 40.8902 12.2674C41.0207 11.2888 41.6076 10.5058 42.4554 10.0491C42.7163 9.78816 42.7815 9.3967 42.5206 9.13572C42.325 8.93999 42.0641 8.87475 41.8033 8.93999C40.6294 9.59243 39.8468 10.7668 39.6511 12.0717C39.5207 12.9851 39.5859 13.9638 39.912 14.8772C37.2382 13.5723 34.0426 14.029 31.8905 16.0516C31.6296 16.3125 31.6296 16.704 31.8905 16.965C32.1513 17.226 32.4774 17.226 32.7383 17.0302C35.5426 14.4857 38.9338 15.4644 41.2163 17.226C41.6728 17.6827 42.0641 18.0741 42.5206 18.4004Z" fill="white"/>
</svg>
