<svg width="60" height="57" viewBox="0 0 60 57" fill="none" xmlns="http://www.w3.org/2000/svg">
<circle cx="30.2607" cy="8.26066" r="8.26066" fill="#D91A82"/>
<path d="M59.7376 25.054C59.2811 23.2924 58.3681 22.0528 57.1942 21.4656C56.542 21.1394 55.7594 21.0089 55.0421 21.0742C55.8247 19.1168 55.3681 16.8986 53.9334 15.3979C52.303 13.4406 49.6292 12.6577 47.2162 13.5059C47.2814 11.8095 46.1075 10.1132 44.6076 9.06929C43.1076 8.02539 40.6946 7.37295 38.8034 8.74307C38.4121 7.96015 37.7599 7.30771 36.9773 6.91624C34.4991 5.54612 29.8688 5.74185 27.3254 7.30771C26.608 7.69917 26.0863 8.28636 25.695 9.00405C24.7168 8.41685 23.5429 8.15588 22.4342 8.28636C20.3473 8.41685 18.5213 9.46075 17.2822 11.1571C11.9345 9.91746 8.15197 11.2223 6.45636 14.876C2.15212 16.9638 0 20.8132 0 26.2937C0 29.7516 0.91302 32.2961 2.80428 33.9272C4.30424 35.2973 6.45636 36.015 9.1302 36.015C9.58671 36.015 10.0432 36.015 10.4997 35.9498C10.3041 39.6687 13.2388 43.6485 16.2387 44.9534C22.3038 47.5632 29.2819 45.2796 32.2166 44.3662L32.6731 44.2357C34.3687 43.7138 35.7382 43.8443 36.8469 44.6924C40.4338 47.3674 40.499 55.7839 40.499 55.8491C40.499 56.2406 40.7598 56.5016 41.1511 56.5016H50.0205C50.2161 56.5016 50.3465 56.4363 50.477 56.3058C50.6074 56.1754 50.6726 55.9796 50.6726 55.8491C50.6074 52.7174 50.2161 49.651 49.4987 46.6497C59.0202 41.6912 59.2159 36.2107 57.5203 32.2961C59.6072 30.4693 60.455 27.6638 59.7376 25.054ZM53.7378 34.4491C54.716 34.1882 55.629 33.7315 56.4768 33.1443C58.2376 37.6461 55.7594 41.8217 49.2379 45.3449C49.1727 45.0839 49.1074 44.8229 49.0422 44.5619L48.977 44.2357C48.5857 42.8004 48.3249 41.8869 48.3249 41.8217C48.2596 41.4955 47.8683 41.2345 47.5423 41.2998C47.2162 41.365 46.9553 41.7565 47.0205 42.0827C47.0205 42.1479 47.0205 42.1479 47.0858 42.2132C47.0858 42.2132 47.3466 43.1266 47.7379 44.5619L47.8031 44.8882C47.9336 45.3449 48.064 45.8668 48.1944 46.454C48.8466 49.3247 49.3031 52.2607 49.4335 55.1967H41.8685C41.8033 53.0436 41.2163 46.2583 37.6947 43.6485C36.1947 42.5394 34.4339 42.3437 32.347 42.9961L31.8905 43.1266C29.021 44.04 22.369 46.193 16.7604 43.779C14.1518 42.6699 11.478 39.0815 11.804 35.8845C13.5649 35.6235 15.2605 35.1668 16.8909 34.5796C17.217 34.4491 17.4126 34.0577 17.2822 33.7315C17.1517 33.4052 16.7604 33.2095 16.4344 33.4052C15.0648 33.9272 13.6301 34.3187 12.1301 34.5796C12.4562 33.7967 12.9779 33.079 13.6953 32.4918C13.9562 32.2961 14.0214 31.9046 13.8257 31.5784C13.6301 31.3174 13.2388 31.2522 12.9127 31.4479L12.8475 31.5132C11.804 32.3613 11.0867 33.4705 10.6954 34.7754C7.63024 35.1016 5.28247 34.5144 3.65208 33.1443C2.02169 31.7741 1.30431 29.3601 1.30431 26.2937C1.30431 21.9223 2.80428 18.6601 5.8042 16.7028C5.54334 17.7467 5.41291 18.7906 5.41291 19.8345C5.41291 20.226 5.67377 20.487 6.06506 20.487C6.45636 20.487 6.71722 20.226 6.71722 19.8345C6.71722 18.3992 6.97808 17.029 7.43459 15.6589L7.49981 15.5937C9.26063 11.4181 13.891 11.6138 17.4126 12.5272C18.6517 12.8534 19.8256 13.2449 20.9995 13.7668C21.3255 13.8973 21.7168 13.7668 21.8473 13.4406C21.9777 13.1144 21.8473 12.7229 21.5212 12.5925C20.543 12.1358 19.5647 11.8095 18.5865 11.5486C19.5647 10.4394 20.9995 9.72173 22.4994 9.59124C23.6081 9.39551 24.782 9.78697 25.5646 10.7004C25.7602 10.9614 26.0211 11.0266 26.2819 10.9614C26.5428 10.8961 26.7384 10.5699 26.7384 10.3089C26.7384 9.65649 27.1297 9.00405 27.9775 8.4821C30.1949 7.11198 34.2383 6.91624 36.3252 8.09063C37.1077 8.4821 37.6295 9.26502 37.6295 10.1132C37.6295 10.5047 37.9556 10.7656 38.2816 10.7656C38.4773 10.7656 38.6729 10.7004 38.8034 10.5047C40.2381 8.74307 42.325 9.19978 43.7598 10.1784C45.1945 11.1571 46.3684 13.0492 45.5858 14.4193C45.4554 14.6803 45.4554 15.0065 45.7162 15.2022C45.9771 15.3979 46.3032 15.4632 46.564 15.2022C46.564 15.2022 50.1509 13.1144 52.89 16.3114C54.3247 17.7467 54.4551 20.0303 53.2812 21.6614C53.216 21.7918 53.1508 21.9223 53.1508 22.0528V22.1181C53.1508 22.1181 53.1508 22.1181 53.1508 22.1833C53.1508 22.2485 53.216 22.3138 53.216 22.379C53.2812 22.4443 53.2812 22.5095 53.3465 22.5748C53.4117 22.64 53.4769 22.64 53.5421 22.64C53.6073 22.64 53.6725 22.7053 53.7378 22.7053C53.8682 22.7053 53.9334 22.7053 54.0638 22.64C54.8464 22.3138 55.7594 22.3138 56.6073 22.64C57.4551 23.0315 58.1072 24.0101 58.4985 25.3803C59.1507 27.729 58.4333 29.8168 56.3464 31.5132C55.5638 32.1656 54.6508 32.6876 53.6725 33.079C53.2812 33.079 53.0204 33.4052 53.0856 33.7967C53.1508 34.1882 53.4117 34.4491 53.803 34.3839L53.7378 34.4491Z" fill="white"/>
<path d="M25.3692 13.5059C25.2387 13.1797 24.8474 12.9839 24.5214 13.1144C24.1953 13.2449 23.9996 13.6364 24.1301 13.9626C25.2387 16.8333 23.9996 18.4644 22.5649 18.9864C20.7388 19.704 18.3259 18.7906 17.152 15.7894C17.0868 15.4632 16.6955 15.2675 16.3694 15.3327C16.0433 15.398 15.8477 15.7894 15.9129 16.1156C15.9129 16.1809 15.9129 16.1809 15.9781 16.2461C17.0868 19.1821 19.3693 20.487 21.391 20.487C21.9779 20.487 22.4997 20.3565 23.0214 20.1608C25.1735 19.4431 26.7387 16.9638 25.3692 13.5059Z" fill="white"/>
<path d="M43.0427 35.2973C41.8688 36.0802 41.0863 37.3199 40.9558 38.69C40.8254 40.3863 41.2819 42.1479 42.3254 43.518C42.4558 43.7138 42.6514 43.779 42.8471 43.779C42.9775 43.779 43.1079 43.7138 43.2384 43.6485C43.5645 43.4528 43.6297 43.0613 43.434 42.7351C42.5862 41.626 42.1297 40.2558 42.2601 38.8205C42.3906 37.7766 42.9775 36.8632 43.8253 36.276C45.7166 34.9711 48.9774 35.2973 51.1295 38.4943C51.3251 38.8205 51.7164 38.8857 52.0425 38.69C52.3686 38.4943 52.4338 38.1028 52.1729 37.7766C49.4991 33.9272 45.4557 33.601 43.0427 35.2973Z" fill="white"/>
<path d="M36.7161 35.2973C33.7162 36.6674 30.1293 36.3412 27.3903 34.5144C25.6947 33.34 24.7164 31.8394 24.7816 30.4693C24.8469 29.3601 25.6947 28.3815 27.1294 27.5985C27.912 28.251 28.825 28.5772 29.8685 28.5772H29.9989C31.4989 28.6424 32.9336 27.7943 33.7162 26.4894C33.9771 26.2284 33.9118 25.8369 33.651 25.576C33.3901 25.315 32.9988 25.3802 32.738 25.6412C32.6727 25.7065 32.6075 25.7717 32.6075 25.9022C32.0206 26.8156 31.0424 27.3375 29.9989 27.2723C29.0859 27.3375 28.2381 26.9461 27.7164 26.2284C27.2598 25.4455 27.4555 24.3363 28.3033 22.9662C28.4989 22.64 28.3685 22.2485 28.1076 22.0528C27.7816 21.8571 27.3903 21.9876 27.1946 22.2485C25.9555 24.2058 26.0207 25.6412 26.412 26.4894C24.1947 27.729 23.6078 29.2296 23.5425 30.3388C23.4121 32.1656 24.586 34.1229 26.6729 35.5583C28.4989 36.7979 30.7163 37.4503 32.8684 37.4503C34.3684 37.4503 35.8683 37.1241 37.2378 36.4717C37.5639 36.3412 37.6944 35.9497 37.5639 35.6235C37.4335 35.2321 37.0422 35.1016 36.7161 35.2973Z" fill="white"/>
<path d="M15.5215 26.4894C12.5868 24.9235 8.99994 25.9022 7.30433 28.7729C7.10868 29.0991 7.23911 29.4906 7.56519 29.6863C7.89127 29.8821 8.28256 29.7516 8.47821 29.4254C9.84774 27.2071 12.652 26.4241 14.9346 27.5985C15.6519 28.0552 16.6954 29.0339 15.5867 30.926C15.3911 31.2522 15.4563 31.6437 15.7824 31.8394C15.9128 31.9046 15.978 31.9046 16.1084 31.9046C16.3693 31.9046 16.565 31.7741 16.6954 31.5784C17.8041 29.6211 17.3475 27.5985 15.5215 26.4894Z" fill="white"/>
<path d="M42.5206 21.4004C44.6075 23.6839 45.7814 27.2723 43.8249 30.0778C43.5641 30.4692 43.238 30.8607 42.8467 31.1869C42.5858 31.4479 42.5858 31.8394 42.7815 32.1003C42.9119 32.2308 43.1076 32.2961 43.238 32.2961C43.3684 32.2961 43.5641 32.2308 43.6945 32.1003C44.151 31.7089 44.5423 31.2522 44.8684 30.7955C46.7597 28.0552 46.2379 24.8583 44.738 22.2485C44.9336 22.2485 45.064 22.3138 45.2597 22.3138C46.1075 22.3138 46.9553 22.0528 47.6727 21.5961C47.9988 21.4656 48.1944 21.0741 48.064 20.7479C47.9335 20.4217 47.5422 20.226 47.2162 20.3565C47.151 20.3565 47.0857 20.4217 47.0205 20.4869C45.9119 21.2046 44.4119 21.1394 43.3032 20.3565C42.9119 19.965 42.5206 19.5735 42.0641 19.1821C41.1511 18.0729 40.6946 16.7028 40.8902 15.2674C41.0207 14.2888 41.6076 13.5058 42.4554 13.0491C42.7163 12.7882 42.7815 12.3967 42.5206 12.1357C42.325 11.94 42.0641 11.8748 41.8033 11.94C40.6294 12.5924 39.8468 13.7668 39.6511 15.0717C39.5207 15.9851 39.5859 16.9638 39.912 17.8772C37.2382 16.5723 34.0426 17.029 31.8905 19.0516C31.6296 19.3125 31.6296 19.704 31.8905 19.965C32.1513 20.226 32.4774 20.226 32.7383 20.0302C35.5426 17.4857 38.9338 18.4644 41.2163 20.226C41.6728 20.6827 42.0641 21.0741 42.5206 21.4004Z" fill="white"/>
</svg>
