<svg width="60" height="51" viewBox="0 0 60 51" fill="none" xmlns="http://www.w3.org/2000/svg">
<circle cx="29.9994" cy="25.6543" r="8.26066" fill="#D91A82"/>
<path d="M59.7376 19.054C59.2811 17.2924 58.3681 16.0528 57.1942 15.4656C56.542 15.1394 55.7594 15.0089 55.0421 15.0742C55.8247 13.1168 55.3681 10.8986 53.9334 9.39794C52.303 7.44063 49.6292 6.6577 47.2162 7.50587C47.2814 5.80953 46.1075 4.11319 44.6076 3.06929C43.1076 2.02539 40.6946 1.37295 38.8034 2.74307C38.4121 1.96015 37.7599 1.30771 36.9773 0.916244C34.4991 -0.453877 29.8688 -0.258145 27.3254 1.30771C26.608 1.69917 26.0863 2.28636 25.695 3.00405C24.7168 2.41685 23.5429 2.15588 22.4342 2.28636C20.3473 2.41685 18.5213 3.46075 17.2822 5.15709C11.9345 3.91746 8.15197 5.22234 6.45636 8.87599C2.15212 10.9638 0 14.8132 0 20.2937C0 23.7516 0.91302 26.2961 2.80428 27.9272C4.30424 29.2973 6.45636 30.015 9.1302 30.015C9.58671 30.015 10.0432 30.015 10.4997 29.9498C10.3041 33.6687 13.2388 37.6485 16.2387 38.9534C22.3038 41.5632 29.2819 39.2796 32.2166 38.3662L32.6731 38.2357C34.3687 37.7138 35.7382 37.8443 36.8469 38.6924C40.4338 41.3674 40.499 49.7839 40.499 49.8491C40.499 50.2406 40.7598 50.5016 41.1511 50.5016H50.0205C50.2161 50.5016 50.3465 50.4363 50.477 50.3058C50.6074 50.1754 50.6726 49.9796 50.6726 49.8491C50.6074 46.7174 50.2161 43.651 49.4987 40.6497C59.0202 35.6912 59.2159 30.2107 57.5203 26.2961C59.6072 24.4693 60.455 21.6638 59.7376 19.054ZM53.7378 28.4491C54.716 28.1882 55.629 27.7315 56.4768 27.1443C58.2376 31.6461 55.7594 35.8217 49.2379 39.3449C49.1727 39.0839 49.1074 38.8229 49.0422 38.5619L48.977 38.2357C48.5857 36.8004 48.3249 35.8869 48.3249 35.8217C48.2596 35.4955 47.8683 35.2345 47.5423 35.2998C47.2162 35.365 46.9553 35.7565 47.0205 36.0827C47.0205 36.1479 47.0205 36.1479 47.0858 36.2132C47.0858 36.2132 47.3466 37.1266 47.7379 38.5619L47.8031 38.8882C47.9336 39.3449 48.064 39.8668 48.1944 40.454C48.8466 43.3247 49.3031 46.2607 49.4335 49.1967H41.8685C41.8033 47.0436 41.2163 40.2583 37.6947 37.6485C36.1947 36.5394 34.4339 36.3437 32.347 36.9961L31.8905 37.1266C29.021 38.04 22.369 40.193 16.7604 37.779C14.1518 36.6699 11.478 33.0815 11.804 29.8845C13.5649 29.6235 15.2605 29.1668 16.8909 28.5796C17.217 28.4491 17.4126 28.0577 17.2822 27.7315C17.1517 27.4052 16.7604 27.2095 16.4344 27.4052C15.0648 27.9272 13.6301 28.3187 12.1301 28.5796C12.4562 27.7967 12.9779 27.079 13.6953 26.4918C13.9562 26.2961 14.0214 25.9046 13.8257 25.5784C13.6301 25.3174 13.2388 25.2522 12.9127 25.4479L12.8475 25.5132C11.804 26.3613 11.0867 27.4705 10.6954 28.7754C7.63024 29.1016 5.28247 28.5144 3.65208 27.1443C2.02169 25.7741 1.30431 23.3601 1.30431 20.2937C1.30431 15.9223 2.80428 12.6601 5.8042 10.7028C5.54334 11.7467 5.41291 12.7906 5.41291 13.8345C5.41291 14.226 5.67377 14.487 6.06506 14.487C6.45636 14.487 6.71722 14.226 6.71722 13.8345C6.71722 12.3992 6.97808 11.029 7.43459 9.65892L7.49981 9.59367C9.26063 5.41807 13.891 5.6138 17.4126 6.52721C18.6517 6.85343 19.8256 7.2449 20.9995 7.76685C21.3255 7.89734 21.7168 7.76685 21.8473 7.44063C21.9777 7.11441 21.8473 6.72295 21.5212 6.59246C20.543 6.13575 19.5647 5.80953 18.5865 5.54856C19.5647 4.43941 20.9995 3.72173 22.4994 3.59124C23.6081 3.39551 24.782 3.78697 25.5646 4.70039C25.7602 4.96136 26.0211 5.02661 26.2819 4.96136C26.5428 4.89612 26.7384 4.5699 26.7384 4.30892C26.7384 3.65649 27.1297 3.00405 27.9775 2.4821C30.1949 1.11198 34.2383 0.916244 36.3252 2.09063C37.1077 2.4821 37.6295 3.26502 37.6295 4.11319C37.6295 4.50466 37.9556 4.76563 38.2816 4.76563C38.4773 4.76563 38.6729 4.70039 38.8034 4.50466C40.2381 2.74307 42.325 3.19978 43.7598 4.17844C45.1945 5.15709 46.3684 7.04917 45.5858 8.41929C45.4554 8.68026 45.4554 9.00648 45.7162 9.20221C45.9771 9.39794 46.3032 9.46319 46.564 9.20221C46.564 9.20221 50.1509 7.11441 52.89 10.3114C54.3247 11.7467 54.4551 14.0303 53.2812 15.6614C53.216 15.7918 53.1508 15.9223 53.1508 16.0528V16.1181C53.1508 16.1181 53.1508 16.1181 53.1508 16.1833C53.1508 16.2485 53.216 16.3138 53.216 16.379C53.2812 16.4443 53.2812 16.5095 53.3465 16.5748C53.4117 16.64 53.4769 16.64 53.5421 16.64C53.6073 16.64 53.6725 16.7053 53.7378 16.7053C53.8682 16.7053 53.9334 16.7053 54.0638 16.64C54.8464 16.3138 55.7594 16.3138 56.6073 16.64C57.4551 17.0315 58.1072 18.0101 58.4985 19.3803C59.1507 21.729 58.4333 23.8168 56.3464 25.5132C55.5638 26.1656 54.6508 26.6876 53.6725 27.079C53.2812 27.079 53.0204 27.4052 53.0856 27.7967C53.1508 28.1882 53.4117 28.4491 53.803 28.3839L53.7378 28.4491Z" fill="white"/>
<path d="M25.3692 7.50582C25.2387 7.1796 24.8474 6.98387 24.5214 7.11436C24.1953 7.24485 23.9996 7.63631 24.1301 7.96253C25.2387 10.8333 23.9996 12.4644 22.5649 12.9863C20.7388 13.704 18.3259 12.7906 17.152 9.78936C17.0868 9.46314 16.6955 9.26741 16.3694 9.33265C16.0433 9.39789 15.8477 9.78936 15.9129 10.1156C15.9129 10.1808 15.9129 10.1808 15.9781 10.2461C17.0868 13.182 19.3693 14.4869 21.391 14.4869C21.9779 14.4869 22.4997 14.3564 23.0214 14.1607C25.1735 13.443 26.7387 10.9637 25.3692 7.50582Z" fill="white"/>
<path d="M43.0427 29.2973C41.8688 30.0802 41.0863 31.3199 40.9558 32.69C40.8254 34.3863 41.2819 36.1479 42.3254 37.518C42.4558 37.7138 42.6514 37.779 42.8471 37.779C42.9775 37.779 43.1079 37.7138 43.2384 37.6485C43.5645 37.4528 43.6297 37.0613 43.434 36.7351C42.5862 35.626 42.1297 34.2558 42.2601 32.8205C42.3906 31.7766 42.9775 30.8632 43.8253 30.276C45.7166 28.9711 48.9774 29.2973 51.1295 32.4943C51.3251 32.8205 51.7164 32.8857 52.0425 32.69C52.3686 32.4943 52.4338 32.1028 52.1729 31.7766C49.4991 27.9272 45.4557 27.601 43.0427 29.2973Z" fill="white"/>
<path d="M36.7161 29.2974C33.7162 30.6675 30.1293 30.3413 27.3903 28.5144C25.6947 27.34 24.7164 25.8394 24.7816 24.4693C24.8469 23.3602 25.6947 22.3815 27.1294 21.5986C27.912 22.251 28.825 22.5772 29.8685 22.5772H29.9989C31.4989 22.6425 32.9336 21.7943 33.7162 20.4894C33.9771 20.2285 33.9118 19.837 33.651 19.576C33.3901 19.3151 32.9988 19.3803 32.738 19.6413C32.6727 19.7065 32.6075 19.7718 32.6075 19.9022C32.0206 20.8157 31.0424 21.3376 29.9989 21.2724C29.0859 21.3376 28.2381 20.9461 27.7164 20.2285C27.2598 19.4455 27.4555 18.3364 28.3033 16.9663C28.4989 16.6401 28.3685 16.2486 28.1076 16.0529C27.7816 15.8571 27.3903 15.9876 27.1946 16.2486C25.9555 18.2059 26.0207 19.6413 26.412 20.4894C24.1947 21.7291 23.6078 23.2297 23.5425 24.3388C23.4121 26.1657 24.586 28.123 26.6729 29.5583C28.4989 30.798 30.7163 31.4504 32.8684 31.4504C34.3684 31.4504 35.8683 31.1242 37.2378 30.4718C37.5639 30.3413 37.6944 29.9498 37.5639 29.6236C37.4335 29.2321 37.0422 29.1016 36.7161 29.2974Z" fill="white"/>
<path d="M15.5215 20.4894C12.5868 18.9235 8.99994 19.9022 7.30433 22.7729C7.10868 23.0991 7.23911 23.4906 7.56519 23.6863C7.89127 23.8821 8.28256 23.7516 8.47821 23.4254C9.84774 21.2071 12.652 20.4241 14.9346 21.5985C15.6519 22.0552 16.6954 23.0339 15.5867 24.926C15.3911 25.2522 15.4563 25.6437 15.7824 25.8394C15.9128 25.9046 15.978 25.9046 16.1084 25.9046C16.3693 25.9046 16.565 25.7741 16.6954 25.5784C17.8041 23.6211 17.3475 21.5985 15.5215 20.4894Z" fill="white"/>
<path d="M42.5206 15.4004C44.6075 17.6839 45.7814 21.2723 43.8249 24.0778C43.5641 24.4692 43.238 24.8607 42.8467 25.1869C42.5858 25.4479 42.5858 25.8394 42.7815 26.1003C42.9119 26.2308 43.1076 26.2961 43.238 26.2961C43.3684 26.2961 43.5641 26.2308 43.6945 26.1003C44.151 25.7089 44.5423 25.2522 44.8684 24.7955C46.7597 22.0552 46.2379 18.8583 44.738 16.2485C44.9336 16.2485 45.064 16.3138 45.2597 16.3138C46.1075 16.3138 46.9553 16.0528 47.6727 15.5961C47.9988 15.4656 48.1944 15.0741 48.064 14.7479C47.9335 14.4217 47.5422 14.226 47.2162 14.3565C47.151 14.3565 47.0857 14.4217 47.0205 14.4869C45.9119 15.2046 44.4119 15.1394 43.3032 14.3565C42.9119 13.965 42.5206 13.5735 42.0641 13.1821C41.1511 12.0729 40.6946 10.7028 40.8902 9.26743C41.0207 8.28877 41.6076 7.50585 42.4554 7.04914C42.7163 6.78816 42.7815 6.3967 42.5206 6.13572C42.325 5.93999 42.0641 5.87475 41.8033 5.93999C40.6294 6.59243 39.8468 7.76682 39.6511 9.0717C39.5207 9.98511 39.5859 10.9638 39.912 11.8772C37.2382 10.5723 34.0426 11.029 31.8905 13.0516C31.6296 13.3125 31.6296 13.704 31.8905 13.965C32.1513 14.226 32.4774 14.226 32.7383 14.0302C35.5426 11.4857 38.9338 12.4644 41.2163 14.226C41.6728 14.6827 42.0641 15.0741 42.5206 15.4004Z" fill="white"/>
</svg>
