<svg width="159" height="40" viewBox="0 0 159 40" fill="none" xmlns="http://www.w3.org/2000/svg">
<g id="logo">
<g id="Vector">
<path id="Vector_2" d="M18.3928 34.8649V29.6593L13.7951 25.1043L18.3928 20.5494V15.3438L8.59106 25.1043L18.3928 34.8649Z" fill="white"/>
</g>
<g id="Vector_3">
<path id="Vector_4" d="M0 39.7703H29.6578V10.4385H0V39.7703ZM3.68828 14.0924H25.919V36.1163H3.68828V14.0924Z" fill="white"/>
</g>
<g id="Group 19008">
<g id="Vector_5">
<path id="Vector_6" d="M45.8765 27.0726C47.2406 27.0726 48.7563 27.5731 50.3226 28.5242C50.4236 28.324 50.5247 27.8234 50.4742 26.8724C50.4742 25.9714 50.4236 25.3708 50.3226 25.1205C49.0595 24.3697 47.4932 23.9692 45.6744 23.9692C43.0471 23.9692 40.9756 24.7201 39.4093 26.2717C37.8431 27.7734 37.0852 29.6754 37.0852 31.9279C37.0852 34.1803 37.8431 36.0323 39.4093 37.584C40.9756 39.0856 43.0976 39.8865 45.6744 39.8865C47.4932 39.8865 49.0595 39.4861 50.3226 38.7353C50.4236 38.485 50.4742 37.8843 50.4742 36.9834C50.4742 36.0824 50.4236 35.5318 50.3226 35.3316C48.7563 36.2826 47.2911 36.7831 45.8765 36.7831C44.4618 36.7831 43.2492 36.3326 42.2892 35.4817C41.3293 34.5807 40.8745 33.4295 40.8745 31.9779C40.8745 30.5263 41.3293 29.325 42.2892 28.4741C43.2492 27.5231 44.4618 27.0726 45.8765 27.0726Z" fill="white"/>
</g>
<g id="Vector_7">
<path id="Vector_8" d="M67.6018 39.4355V24.3191C66.5913 24.1689 65.6313 24.1689 64.6713 24.3191L57.5474 33.1787V24.3191C56.2843 24.1189 55.0212 24.1189 53.8086 24.3191V39.4355C54.8191 39.5857 55.779 39.5857 56.739 39.4355L63.8629 30.5759V39.4355C65.1261 39.6858 66.3892 39.6858 67.6018 39.4355Z" fill="white"/>
</g>
<g id="Vector_9">
<path id="Vector_10" d="M85.0844 39.4355V24.3191C83.8213 24.1189 82.5582 24.1189 81.3456 24.3191V30.2756H75.0301V24.3191C73.767 24.1189 72.5038 24.1189 71.2913 24.3191V39.4355C72.5544 39.6357 73.8175 39.6357 75.0301 39.4355V33.3789H81.3456V39.4856C82.5582 39.6858 83.8213 39.6858 85.0844 39.4355Z" fill="white"/>
</g>
<g id="Vector_11">
<path id="Vector_12" d="M99.3816 27.4232C99.5837 26.4221 99.5837 25.371 99.3816 24.3198H88.7209V39.4362H99.3816C99.5837 38.3851 99.5837 37.384 99.3816 36.3329H92.4597V33.3296H98.5227C98.7248 32.3285 98.7248 31.2774 98.5227 30.2262H92.4597V27.3731H99.3816V27.4232Z" fill="white"/>
</g>
<g id="Vector_13">
<path id="Vector_14" d="M112.67 25.7213C111.609 24.7703 110.245 24.3198 108.527 24.3198H102.514V39.4362C103.778 39.6364 105.041 39.6364 106.253 39.4362V34.4808H108.476C110.194 34.4808 111.558 34.0304 112.619 33.0793C113.68 32.1283 114.236 30.927 114.236 29.4254C114.287 27.8737 113.731 26.6724 112.67 25.7213ZM108.527 31.3775H106.304V27.4232H108.527C109.638 27.4232 110.447 28.0739 110.447 29.4254C110.447 30.7268 109.638 31.3775 108.527 31.3775Z" fill="white"/>
</g>
<g id="Vector_15">
<path id="Vector_16" d="M117.065 39.4362C118.329 39.6364 119.592 39.6364 120.804 39.4362V27.4232H127.12C127.322 26.4221 127.322 25.371 127.12 24.3198H117.065V39.4362Z" fill="white"/>
</g>
<g id="Vector_17">
<path id="Vector_18" d="M129.848 24.3191V39.4355C130.858 39.5857 131.818 39.5857 132.778 39.4355L139.902 30.5759V39.4355C141.165 39.6357 142.428 39.6357 143.641 39.4355V24.3191C142.63 24.1689 141.67 24.1689 140.71 24.3191L133.586 33.1787V24.3191C132.374 24.1189 131.111 24.1189 129.848 24.3191Z" fill="white"/>
</g>
<g id="Vector_19">
<path id="Vector_20" d="M147.076 29.3253C147.076 31.3274 148.188 32.9792 150.007 33.7801L146.318 39.4362C146.874 39.5363 147.531 39.5864 148.339 39.5864C149.148 39.5864 149.855 39.5363 150.411 39.4362L153.442 34.8312L153.796 34.3307H155.261V39.4362C156.524 39.6364 157.787 39.6364 159 39.4362V28.8748V24.3198H152.836C151.118 24.3198 149.754 24.7703 148.693 25.7213C147.581 26.6223 147.076 27.8236 147.076 29.3253ZM152.836 27.4232H155.16V28.0238V31.2273H153.341H152.785C151.674 31.2273 150.866 30.5766 150.866 29.3253C150.866 28.1239 151.724 27.4232 152.836 27.4232Z" fill="white"/>
</g>
</g>
<path id="&#208;&#166;&#208;&#181;&#208;&#189;&#209;&#130;&#209;&#128;&#208;&#176; &#208;&#152;&#208;&#189;&#209;&#130;&#208;&#181;&#208;&#187;&#208;&#187;&#208;&#181;&#208;&#186;&#209;&#130;&#208;&#176;" d="M42.7496 18H37.45V10.4119H39.1964V16.3138H41.9065V10.4119H43.653V16.3138H44.4961V19.4454H42.7496V18ZM45.7627 10.4119H51.1827V12.0981H47.5091V13.3026H50.8816V14.9888H47.5091V16.3138H51.3032V18H45.7627V10.4119ZM59.2475 10.4119V18H57.501V14.9888H54.6103V18H52.8638V10.4119H54.6103V13.3026H57.501V10.4119H59.2475ZM64.3712 18H62.6247V12.0981H60.4567V10.4119H66.5392V12.0981H64.3712V18ZM70.6993 10.4119C71.0928 10.4119 71.4541 10.4801 71.7833 10.6166C72.1125 10.7451 72.3976 10.9298 72.6385 11.1707C72.8794 11.4036 73.0681 11.6766 73.2046 11.9897C73.3411 12.3029 73.4093 12.6401 73.4093 13.0015C73.4093 13.3628 73.3411 13.7001 73.2046 14.0132C73.0681 14.3264 72.8794 14.6034 72.6385 14.8443C72.3976 15.0772 72.1125 15.2619 71.7833 15.3984C71.4541 15.5268 71.0928 15.5911 70.6993 15.5911H69.4948V18H67.7484V10.4119H70.6993ZM70.6993 13.9048C70.9723 13.9048 71.2012 13.8165 71.3858 13.6398C71.5705 13.4552 71.6629 13.2424 71.6629 13.0015C71.6629 12.7606 71.5705 12.5518 71.3858 12.3752C71.2012 12.1905 70.9723 12.0981 70.6993 12.0981H69.4948V13.9048H70.6993ZM78.1585 15.0491L77.3154 12.5197L76.4723 15.0491H78.1585ZM75.9905 16.5546L75.5087 18H73.702L76.412 10.4119H78.2187L80.9288 18H79.1221L78.6403 16.5546H75.9905ZM86.8344 10.4119V14.9286L89.9058 10.4119H91.4716V18H89.7251V13.4833L86.6538 18H85.0879V10.4119H86.8344ZM99.6667 10.4119V18H97.9202V14.9888H95.0295V18H93.283V10.4119H95.0295V13.3026H97.9202V10.4119H99.6667ZM104.79 18H103.044V12.0981H100.876V10.4119H106.958V12.0981H104.79V18ZM108.168 10.4119H113.588V12.0981H109.914V13.3026H113.287V14.9888H109.914V16.3138H113.708V18H108.168V10.4119ZM121.592 10.4119V18H119.846V12.0981H117.798L117.497 15.7115C117.433 16.4663 117.204 17.0485 116.81 17.458C116.417 17.8595 115.903 18.0602 115.269 18.0602C115.172 18.0602 115.08 18.0562 114.992 18.0482C114.903 18.0482 114.827 18.0442 114.763 18.0361C114.683 18.0281 114.61 18.0161 114.546 18V16.4944H114.787C115.06 16.4944 115.289 16.394 115.473 16.1933C115.666 15.9926 115.779 15.7115 115.811 15.3502L116.232 10.4119H121.592ZM129.717 10.4119V18H127.97V12.0981H125.923L125.621 15.7115C125.557 16.4663 125.328 17.0485 124.935 17.458C124.541 17.8595 124.028 18.0602 123.393 18.0602C123.297 18.0602 123.205 18.0562 123.116 18.0482C123.028 18.0482 122.952 18.0442 122.887 18.0361C122.807 18.0281 122.735 18.0161 122.671 18V16.4944H122.911C123.184 16.4944 123.413 16.394 123.598 16.1933C123.791 15.9926 123.903 15.7115 123.935 15.3502L124.357 10.4119H129.717ZM131.518 10.4119H136.938V12.0981H133.264V13.3026H136.637V14.9888H133.264V16.3138H137.058V18H131.518V10.4119ZM142.834 18L140.365 14.6275V18H138.619V10.4119H140.365V13.6639L142.654 10.4119H144.641L141.967 14.1457L144.822 18H142.834ZM149.103 18H147.356V12.0981H145.188V10.4119H151.271V12.0981H149.103V18ZM155.671 15.0491L154.828 12.5197L153.985 15.0491H155.671ZM153.503 16.5546L153.022 18H151.215L153.925 10.4119H155.732L158.442 18H156.635L156.153 16.5546H153.503Z" fill="white"/>
</g>
</svg>
