<svg width="408" height="517" viewBox="0 0 408 517" fill="none" xmlns="http://www.w3.org/2000/svg">
<circle cx="299.981" cy="330.93" r="61.1046" transform="rotate(90 299.981 330.93)" fill="#487C9F"/>
<circle cx="299.981" cy="330.93" r="61.1046" transform="rotate(90 299.981 330.93)" fill="url(#paint0_linear)"/>
<ellipse cx="180.789" cy="204.819" rx="180.297" ry="183.252" fill="#487C9F"/>
<ellipse cx="180.789" cy="204.819" rx="180.297" ry="183.252" fill="url(#paint1_linear)"/>
<circle cx="314.585" cy="320.609" r="92.1553" stroke="#487C9F"/>
<circle cx="314.585" cy="320.609" r="92.1553" stroke="url(#paint2_linear)"/>
<circle cx="354.259" cy="243.842" r="52.4823" stroke="#487C9F"/>
<circle cx="354.259" cy="243.842" r="52.4823" stroke="url(#paint3_linear)"/>
<path d="M300.457 114.798L296.66 113.057L296.643 113.094L296.626 113.132L300.457 114.798ZM290.254 131.28L287.058 128.589L287.016 128.64L286.975 128.692L290.254 131.28ZM276.911 145.016L274.22 141.821L274.177 141.857L274.135 141.894L276.911 145.016ZM252.579 175.627L248.842 173.759L248.826 173.792L248.81 173.825L252.579 175.627ZM247.869 197.997V202.174H251.926L252.045 198.119L247.869 197.997ZM192.927 197.997H188.749V202.174H192.927V197.997ZM196.851 169.74L200.814 171.061L200.821 171.042L200.827 171.023L196.851 169.74ZM206.662 148.941L203.211 146.587V146.587L206.662 148.941ZM219.221 134.028L216.445 130.905L216.401 130.945L216.357 130.985L219.221 134.028ZM232.171 122.254L235.022 125.308L235.075 125.259L235.126 125.208L232.171 122.254ZM241.983 110.873L238.583 108.445L238.583 108.445L241.983 110.873ZM238.843 81.047L235.889 84.0011L235.931 84.0433L235.975 84.0842L238.843 81.047ZM202.345 83.0092L199.254 80.199L199.248 80.2064L202.345 83.0092ZM194.889 107.733L194.601 111.901L199.067 112.209V107.733H194.889ZM137.984 103.809L133.821 103.455L133.461 107.685L137.696 107.977L137.984 103.809ZM162.708 45.3342L159.754 42.3801H159.754L162.708 45.3342ZM255.718 28.8514L254.307 32.7834L254.323 32.789L254.338 32.7945L255.718 28.8514ZM282.405 43.7644L279.686 46.9363L282.405 43.7644ZM298.888 65.7415L295.06 67.416L295.092 67.4892L295.127 67.5612L298.888 65.7415ZM201.561 224.683L198.606 221.729L201.561 224.683ZM242.768 224.683L239.749 227.571L239.813 227.638L239.88 227.702L242.768 224.683ZM242.768 265.89L239.814 262.936L242.768 265.89ZM201.561 265.89L198.542 268.778L198.606 268.845L198.673 268.909L201.561 265.89ZM300.597 92.0356C300.597 100.497 299.226 107.457 296.66 113.057L304.255 116.538C307.445 109.58 308.952 101.365 308.952 92.0356H300.597ZM296.626 113.132C294.17 118.782 290.981 123.931 287.058 128.589L293.449 133.971C297.898 128.688 301.513 122.848 304.289 116.463L296.626 113.132ZM286.975 128.692C283.23 133.435 278.98 137.812 274.22 141.821L279.602 148.212C284.783 143.848 289.429 139.067 293.533 133.869L286.975 128.692ZM274.135 141.894C269.271 146.217 264.683 150.941 260.372 156.061L266.763 161.443C270.824 156.621 275.132 152.187 279.686 148.139L274.135 141.894ZM260.372 156.061C255.957 161.303 252.117 167.208 248.842 173.759L256.315 177.495C259.319 171.487 262.805 166.143 266.763 161.443L260.372 156.061ZM248.81 173.825C245.612 180.512 243.967 188.581 243.694 197.874L252.045 198.119C252.295 189.622 253.79 182.777 256.348 177.43L248.81 173.825ZM247.869 193.819H192.927V202.174H247.869V193.819ZM197.104 197.997C197.104 187.319 198.378 178.371 200.814 171.061L192.888 168.419C190.092 176.808 188.749 186.697 188.749 197.997H197.104ZM200.827 171.023C203.347 163.211 206.458 156.656 210.114 151.294L203.211 146.587C199.018 152.737 195.588 160.048 192.875 168.458L200.827 171.023ZM210.114 151.294C213.891 145.754 217.885 141.022 222.084 137.07L216.357 130.985C211.661 135.406 207.282 140.615 203.211 146.587L210.114 151.294ZM221.996 137.15C226.727 132.945 231.069 128.998 235.022 125.308L229.321 119.2C225.425 122.836 221.133 126.738 216.445 130.905L221.996 137.15ZM235.126 125.208C239.177 121.157 242.606 117.189 245.382 113.301L238.583 108.445C236.127 111.883 233.015 115.502 229.217 119.3L235.126 125.208ZM245.382 113.301C248.557 108.856 250.085 103.669 250.085 97.9223H241.729C241.729 102.118 240.641 105.564 238.583 108.445L245.382 113.301ZM250.085 97.9223C250.085 90.0352 247.303 83.2901 241.712 78.0098L235.975 84.0842C239.802 87.6994 241.729 92.2045 241.729 97.9223H250.085ZM241.797 78.0929C236.382 72.6779 229.065 70.1977 220.398 70.1977V78.5531C227.429 78.5531 232.409 80.5206 235.889 84.0011L241.797 78.0929ZM220.398 70.1977C212.244 70.1977 205.153 73.7101 199.254 80.199L205.437 85.8195C210.003 80.7966 214.947 78.5531 220.398 78.5531V70.1977ZM199.248 80.2064C193.311 86.7675 190.711 96.1986 190.711 107.733H199.067C199.067 97.2913 201.438 90.2396 205.443 85.8121L199.248 80.2064ZM195.176 103.566L138.271 99.6412L137.696 107.977L194.601 111.901L195.176 103.566ZM142.147 104.163C144.175 80.3344 152.11 61.8409 165.662 48.2883L159.754 42.3801C144.527 57.607 135.979 78.0968 133.821 103.455L142.147 104.163ZM165.662 48.2883C179.412 34.5385 197.518 27.5348 220.398 27.5348V19.1794C195.661 19.1794 175.307 26.8271 159.754 42.3801L165.662 48.2883ZM220.398 27.5348C233.367 27.5348 244.647 29.3157 254.307 32.7834L257.13 24.9194C246.383 21.0613 234.115 19.1794 220.398 19.1794V27.5348ZM254.338 32.7945C264.386 36.3111 272.809 41.0417 279.686 46.9363L285.124 40.5925C277.349 33.9288 267.982 28.7174 257.098 24.9082L254.338 32.7945ZM279.686 46.9363C286.562 52.8296 291.664 59.6521 295.06 67.416L302.715 64.067C298.786 55.0865 292.9 47.2576 285.124 40.5925L279.686 46.9363ZM295.127 67.5612C298.765 75.0786 300.597 83.2177 300.597 92.0356H308.952C308.952 82.0159 306.86 72.6257 302.648 63.9219L295.127 67.5612ZM197.104 245.09C197.104 238.394 199.51 232.642 204.515 227.637L198.606 221.729C192.1 228.236 188.749 236.088 188.749 245.09H197.104ZM204.515 227.637C209.821 222.33 215.718 219.834 222.36 219.834V211.479C213.304 211.479 205.335 215.001 198.606 221.729L204.515 227.637ZM222.36 219.834C228.994 219.834 234.727 222.321 239.749 227.571L245.787 221.795C239.296 215.01 231.425 211.479 222.36 211.479V219.834ZM239.88 227.702C245.13 232.723 247.616 238.457 247.616 245.09H255.972C255.972 236.026 252.441 228.154 245.655 221.664L239.88 227.702ZM247.616 245.09C247.616 251.732 245.12 257.629 239.814 262.936L245.722 268.844C252.45 262.116 255.972 254.146 255.972 245.09H247.616ZM239.814 262.936C234.809 267.941 229.056 270.346 222.36 270.346V278.702C231.362 278.702 239.215 275.351 245.722 268.844L239.814 262.936ZM222.36 270.346C215.657 270.346 209.741 267.933 204.448 262.871L198.673 268.909C205.416 275.359 213.365 278.702 222.36 278.702V270.346ZM204.579 263.002C199.517 257.71 197.104 251.793 197.104 245.09H188.749C188.749 254.085 192.092 262.035 198.542 268.778L204.579 263.002Z" fill="white"/>
<g filter="url(#filter0_b)">
<path d="M153.776 87.1249C123.551 87.1249 98.8213 111.819 98.8213 142C98.8213 172.181 123.551 196.875 153.776 196.875C184.001 196.875 208.731 172.181 208.731 142C208.731 111.819 184.001 87.1249 153.776 87.1249Z" fill="white" fill-opacity="0.6"/>
<path d="M109.262 224.516L62.0005 407.25H116.955V517H190.046V407.25H245L203.235 224.516H109.262Z" fill="white" fill-opacity="0.6"/>
<path d="M119.955 407.25V404.25H116.955H65.8751L111.585 227.516H200.843L241.237 404.25H190.046H187.046V407.25V514H119.955V407.25ZM101.821 142C101.821 113.48 125.204 90.1249 153.776 90.1249C182.349 90.1249 205.731 113.48 205.731 142C205.731 170.52 182.349 193.875 153.776 193.875C125.204 193.875 101.821 170.52 101.821 142Z" stroke="#203A64" stroke-width="6"/>
</g>
<path d="M129.606 147.859C129.975 147.859 130.36 147.859 130.752 147.83C130.762 149.919 131.557 152.025 132.745 153.803C134.02 155.712 135.776 157.284 137.579 158.068L137.58 158.069C141.145 159.603 144.96 159.692 148.288 159.276C151.461 158.879 154.22 158.018 155.924 157.486C156.006 157.461 156.085 157.436 156.162 157.412L156.68 157.264L156.68 157.264L156.688 157.261C158.551 156.688 159.974 156.851 161.11 157.72L161.11 157.72L161.114 157.723C162.064 158.432 162.804 159.54 163.374 160.843C163.943 162.142 164.331 163.606 164.594 164.991C164.856 166.374 164.993 167.666 165.063 168.618C165.098 169.094 165.117 169.484 165.127 169.756C165.132 169.892 165.135 169.999 165.136 170.073C165.137 170.11 165.137 170.138 165.138 170.157C165.138 170.175 165.138 170.185 165.138 170.186V170.187C165.138 170.502 165.245 170.796 165.46 171.012C165.676 171.228 165.97 171.334 166.285 171.334H176.448C176.607 171.334 176.757 171.307 176.9 171.244C177.042 171.181 177.156 171.091 177.254 170.993C177.484 170.763 177.596 170.435 177.596 170.187H177.596L177.596 170.178C177.522 166.667 177.094 163.226 176.311 159.855C181.634 157.032 184.431 154.036 185.636 151.126C186.819 148.271 186.443 145.564 185.521 143.304C187.868 141.111 188.807 137.844 187.97 134.796C187.426 132.703 186.324 131.168 184.848 130.43C184.211 130.111 183.482 129.943 182.77 129.922C183.434 127.683 182.837 125.255 181.231 123.568C179.374 121.348 176.402 120.378 173.622 121.128C173.46 119.2 172.101 117.386 170.474 116.254C168.783 115.077 166.032 114.259 163.734 115.638C163.241 114.841 162.526 114.182 161.689 113.761C160.183 112.931 158.068 112.593 155.984 112.678C153.898 112.764 151.774 113.278 150.242 114.218C149.466 114.644 148.879 115.249 148.427 115.968C147.313 115.392 146.028 115.145 144.802 115.287C142.379 115.442 140.25 116.62 138.77 118.528C135.768 117.866 133.159 117.894 131.032 118.625C128.877 119.366 127.248 120.82 126.227 122.939C123.757 124.164 121.887 125.898 120.632 128.124C119.358 130.384 118.731 133.128 118.731 136.32C118.731 140.345 119.794 143.393 122.079 145.366C123.891 147.019 126.462 147.859 129.593 147.859H129.606ZM179.97 145.752C179.985 145.766 180.001 145.778 180.017 145.791L179.372 146.435L180.811 146.051C181.819 145.783 182.763 145.342 183.644 144.784C184.409 147.08 184.158 149.28 182.914 151.376C181.629 153.541 179.271 155.618 175.814 157.55L175.718 157.165L175.645 156.801L175.642 156.787L175.639 156.774C175.489 156.225 175.356 155.742 175.245 155.34C175.19 155.14 175.14 154.96 175.097 154.801C175.031 154.563 174.981 154.376 174.946 154.245C174.929 154.178 174.917 154.129 174.909 154.095C174.907 154.09 174.906 154.085 174.905 154.081V154.073L174.898 154.035C174.835 153.72 174.625 153.469 174.391 153.313C174.157 153.157 173.845 153.06 173.53 153.123C173.216 153.186 172.965 153.395 172.809 153.63C172.66 153.852 172.565 154.146 172.611 154.444C172.611 154.491 172.619 154.579 172.662 154.666C172.683 154.708 172.708 154.741 172.727 154.764L172.754 154.86C172.789 154.983 172.841 155.165 172.906 155.398C173.036 155.862 173.221 156.53 173.443 157.345L173.515 157.705L173.519 157.721L173.523 157.737C173.67 158.251 173.817 158.841 173.965 159.508L173.966 159.51C174.678 162.645 175.184 165.843 175.356 169.039H167.492C167.429 167.687 167.215 165.332 166.588 162.918C165.9 160.27 164.694 157.465 162.563 155.885L162.562 155.885C160.72 154.522 158.564 154.3 156.082 155.075L155.564 155.224L155.564 155.223L155.552 155.227L155.475 155.252C153.824 155.777 151.163 156.625 148.131 157.015C145.049 157.412 141.617 157.332 138.494 155.988L138.493 155.988C137.086 155.389 135.629 154.104 134.569 152.509C133.572 151.008 132.956 149.281 133.032 147.657C134.967 147.347 136.83 146.836 138.621 146.191L138.621 146.191L138.634 146.186C139.187 145.965 139.547 145.299 139.306 144.694C139.092 144.159 138.417 143.759 137.791 144.106C136.496 144.598 135.149 144.986 133.748 145.272C134.082 144.707 134.523 144.187 135.072 143.736C135.553 143.369 135.628 142.688 135.317 142.17L135.306 142.152L135.294 142.135C134.928 141.647 134.243 141.57 133.721 141.883L133.679 141.908L133.644 141.943L133.584 142.003C132.401 142.971 131.568 144.216 131.085 145.667C127.771 145.973 125.287 145.304 123.573 143.863C121.841 142.408 121.025 139.792 121.025 136.32C121.025 131.837 122.424 128.454 125.172 126.262C125.013 127.147 124.933 128.032 124.933 128.918C124.933 129.233 125.04 129.527 125.256 129.743C125.472 129.959 125.766 130.066 126.081 130.066C126.396 130.066 126.69 129.959 126.905 129.743C127.121 129.527 127.228 129.233 127.228 128.918C127.228 127.354 127.506 125.856 128 124.349L128.008 124.342L128.063 124.286L128.093 124.214C129.042 121.965 130.749 120.898 132.725 120.508C134.723 120.113 136.99 120.415 138.983 120.932C140.386 121.301 141.71 121.743 143.031 122.331L143.038 122.334L143.045 122.337C143.587 122.554 144.291 122.354 144.537 121.74C144.752 121.202 144.557 120.503 143.952 120.253C143.028 119.822 142.106 119.492 141.189 119.221C142.207 118.295 143.551 117.701 144.947 117.579L144.965 117.578L144.982 117.575C146.112 117.375 147.31 117.772 148.113 118.703C148.267 118.904 148.46 119.047 148.681 119.121C148.905 119.195 149.133 119.191 149.344 119.139C149.62 119.07 149.825 118.876 149.953 118.683C150.083 118.488 150.17 118.244 150.17 118.003C150.17 117.436 150.506 116.8 151.4 116.25L151.4 116.25C152.595 115.511 154.317 115.074 156.048 114.992C157.782 114.909 159.454 115.188 160.559 115.81L160.568 115.815L160.576 115.819C161.351 116.206 161.85 116.973 161.85 117.779C161.85 118.474 162.429 118.926 162.997 118.926C163.308 118.926 163.672 118.819 163.916 118.467C164.654 117.567 165.539 117.246 166.427 117.263C167.337 117.28 168.271 117.654 169.049 118.184C169.82 118.71 170.518 119.481 170.914 120.291C171.311 121.103 171.377 121.888 171.019 122.515L171.014 122.524L171.009 122.534C170.811 122.93 170.763 123.545 171.276 123.93C171.468 124.074 171.71 124.191 171.98 124.206C172.245 124.221 172.506 124.134 172.726 123.936C172.753 123.921 172.793 123.9 172.847 123.874C172.956 123.82 173.118 123.746 173.323 123.667C173.733 123.509 174.309 123.336 174.974 123.27C176.292 123.14 177.965 123.428 179.433 125.141L179.443 125.153L179.454 125.164C180.953 126.664 181.096 129.061 179.86 130.778L179.841 130.804L179.827 130.833C179.823 130.84 179.819 130.848 179.815 130.856C179.749 130.987 179.635 131.213 179.635 131.46V131.535V131.535V131.535V131.535V131.535V131.535V131.535V131.535V131.535V131.535V131.535V131.535V131.535V131.535V131.535V131.535V131.535V131.536V131.536V131.536V131.536V131.536V131.536V131.536V131.536V131.536V131.536V131.536V131.536V131.536V131.536V131.536V131.536V131.536V131.536V131.536V131.536V131.536V131.536V131.536V131.536V131.536V131.536V131.536V131.537V131.537V131.537V131.537V131.537V131.537V131.537V131.537V131.537V131.537V131.537V131.537V131.537V131.537V131.537V131.537V131.537V131.537V131.537V131.537V131.537V131.537V131.537V131.537V131.537V131.537V131.538V131.538V131.538V131.538V131.538V131.538V131.538V131.538V131.538V131.538V131.538V131.538V131.538V131.538V131.538V131.538V131.538V131.538V131.538V131.539V131.539V131.539V131.539V131.539V131.539V131.539V131.539V131.539V131.539V131.539V131.539V131.539V131.539V131.539V131.539V131.54V131.54V131.54V131.54V131.54V131.54V131.54V131.54V131.54V131.54V131.54V131.54V131.54V131.54V131.541V131.541V131.541V131.541V131.541V131.541V131.541V131.541V131.541V131.541V131.541V131.541V131.542V131.542V131.542V131.542V131.542V131.542V131.542V131.542V131.542V131.542V131.542V131.543V131.543V131.543V131.543V131.543V131.543V131.543V131.543V131.543V131.543V131.544V131.544V131.544V131.544V131.544V131.544V131.544V131.544V131.544V131.545V131.545V131.545V131.545V131.545V131.545V131.545V131.545V131.545V131.546V131.546V131.546V131.546V131.546V131.546V131.546V131.546V131.547V131.547V131.547V131.547V131.547V131.547V131.547V131.547V131.548V131.548V131.548V131.548V131.548V131.548V131.548V131.549V131.549V131.549V131.549V131.549V131.549V131.549V131.55V131.55V131.55V131.55V131.55V131.55V131.55V131.551V131.551V131.551V131.551V131.551V131.551V131.552V131.552V131.552V131.552V131.552V131.552V131.553V131.553V131.553V131.553V131.553V131.553V131.554V131.554V131.554V131.554V131.554V131.554V131.555V131.555V131.555V131.555V131.555V131.556V131.556V131.556V131.556V131.556V131.556V131.557V131.557V131.557V131.557V131.557V131.558V131.558V131.558V131.558V131.558V131.559V131.559V131.559V131.559V131.559V131.56V131.56V131.56V131.56V131.561V131.561V131.561V131.561V131.561V131.562V131.562V131.562V131.562V131.562V131.563V131.563V131.563V131.563V131.564V131.564V131.564V131.564V131.565V131.565V131.565V131.565V131.566V131.566V131.566V131.566V131.566V131.567V131.567V131.567V131.567V131.568V131.568V131.568V131.568V131.569V131.569V131.569V131.57V131.57V131.57V131.57V131.571V131.571V131.571V131.571V131.572V131.572V131.572V131.572V131.573V131.573V131.573V131.574V131.574V131.574V131.574V131.575V131.575V131.575V131.576V131.576V131.576V131.577V131.577V131.577V131.577V131.578V131.578V131.578V131.579V131.579V131.579V131.58V131.58V131.58V131.58V131.581V131.581V131.581V131.582V131.582V131.582V131.583V131.583V131.583V131.584V131.584V131.584V131.585V131.585V131.585V131.586V131.586V131.586V131.587V131.587V131.587V131.588V131.588V131.588V131.589V131.589V131.59V131.59V131.59V131.591V131.591V131.591V131.592V131.592V131.592V131.593V131.593V131.594V131.594V131.594V131.595V131.595V131.595V131.596V131.596V131.597V131.597V131.597V131.598V131.598V131.598V131.599V131.599V131.6V131.6V131.6V131.601V131.601V131.602V131.602V131.603V131.603V131.603V131.604V131.604V131.605V131.605V131.605V131.606V131.606V131.607V131.607V131.608V131.608V131.608V131.609V131.609V131.61C179.635 131.694 179.656 131.763 179.673 131.806C179.686 131.841 179.701 131.873 179.71 131.891V132L179.818 132.108C179.82 132.111 179.823 132.117 179.827 132.125L179.83 132.13C179.85 132.171 179.893 132.257 179.977 132.341L180.26 132.058L179.977 132.341C180.139 132.504 180.32 132.529 180.425 132.532C180.444 132.542 180.476 132.557 180.511 132.571C180.555 132.587 180.624 132.608 180.708 132.608L180.72 132.608C180.785 132.608 180.871 132.608 180.961 132.593C181.061 132.576 181.151 132.544 181.247 132.498C182.035 132.173 182.965 132.168 183.84 132.502C184.65 132.882 185.344 133.863 185.778 135.381C186.132 136.658 186.11 137.844 185.73 138.935C185.348 140.029 184.596 141.055 183.445 141.99L183.441 141.993C182.598 142.697 181.611 143.266 180.548 143.698C179.884 143.744 179.458 144.335 179.566 144.983C179.615 145.274 179.742 145.555 179.97 145.752Z" fill="#203A64" stroke="#203A64" stroke-width="0.8"/>
<path d="M148.573 121.519L148.572 121.518C148.351 120.966 147.685 120.605 147.081 120.846C146.529 121.067 146.169 121.732 146.408 122.336C147.016 123.909 146.96 125.088 146.608 125.922C146.256 126.759 145.583 127.304 144.851 127.571L144.851 127.57L144.841 127.574C143.008 128.294 140.457 127.428 139.168 124.165C139.093 123.858 138.878 123.634 138.643 123.504C138.399 123.368 138.097 123.31 137.81 123.368C137.481 123.433 137.245 123.657 137.109 123.902C136.98 124.133 136.921 124.416 136.965 124.69C136.966 124.737 136.974 124.825 137.016 124.91C137.043 124.963 137.075 125.002 137.095 125.025C138.431 128.479 141.165 130.066 143.642 130.066C144.375 130.066 145.02 129.903 145.644 129.669C146.978 129.222 148.13 128.23 148.737 126.814C149.345 125.393 149.389 123.581 148.573 121.519Z" fill="#203A64" stroke="#203A64" stroke-width="0.8"/>
<path d="M165.663 150.487L165.663 150.487L165.662 150.494C165.506 152.522 166.049 154.636 167.305 156.29C167.549 156.647 167.915 156.756 168.228 156.756C168.475 156.756 168.701 156.642 168.832 156.576C168.84 156.572 168.848 156.568 168.856 156.564L168.869 156.557L168.882 156.549C169.476 156.193 169.563 155.486 169.244 154.954L169.232 154.935L169.219 154.917C168.303 153.719 167.816 152.249 167.953 150.717C168.09 149.643 168.695 148.698 169.577 148.087C171.529 146.74 175.019 147.013 177.382 150.516C177.74 151.1 178.442 151.185 178.971 150.867C179.252 150.698 179.441 150.43 179.488 150.116C179.534 149.809 179.439 149.499 179.236 149.239C176.062 144.68 171.192 144.226 168.226 146.307C166.791 147.266 165.824 148.789 165.663 150.487Z" fill="#203A64" stroke="#203A64" stroke-width="0.8"/>
<path d="M153.531 137.042L153.504 137.04L153.478 137.042C152.573 137.107 151.742 136.724 151.226 136.026C150.834 135.332 150.957 134.247 151.903 132.717L151.903 132.717L151.906 132.713C152.254 132.132 152.012 131.465 151.579 131.14L151.563 131.128L151.545 131.117C150.965 130.769 150.297 131.012 149.973 131.445L149.963 131.457L149.955 131.47C148.624 133.573 148.521 135.238 148.898 136.37C146.492 137.82 145.789 139.569 145.709 140.929C145.547 143.215 147.011 145.575 149.468 147.265L149.47 147.267C151.631 148.734 154.251 149.504 156.794 149.504C158.567 149.504 160.341 149.119 161.963 148.349C162.563 148.1 162.758 147.409 162.551 146.873C162.439 146.549 162.209 146.306 161.911 146.196C161.62 146.089 161.298 146.122 161.019 146.281C157.715 147.782 153.762 147.422 150.742 145.409C148.852 144.099 147.863 142.494 147.927 141.126C147.988 140.114 148.733 139.138 150.18 138.295C151.102 138.989 152.165 139.336 153.357 139.336H153.498C155.36 139.414 157.118 138.372 158.085 136.788C158.545 136.286 158.363 135.604 157.974 135.215C157.468 134.709 156.761 134.89 156.362 135.289C156.36 135.292 156.357 135.294 156.355 135.296C156.285 135.366 156.149 135.502 156.107 135.733C155.503 136.617 154.543 137.105 153.531 137.042Z" fill="#203A64" stroke="#203A64" stroke-width="0.8"/>
<path d="M137.124 136.202L137.115 136.196L137.105 136.191C133.556 134.298 129.211 135.481 127.157 138.956C126.803 139.548 127.062 140.231 127.594 140.55C128.186 140.905 128.868 140.647 129.188 140.116C130.646 137.757 133.621 136.926 136.045 138.162C136.425 138.407 136.836 138.758 137.03 139.251C137.218 139.727 137.235 140.42 136.647 141.424C136.33 141.956 136.417 142.662 137.01 143.017L137.023 143.025L137.037 143.032C137.137 143.083 137.232 143.117 137.337 143.134C137.426 143.149 137.512 143.149 137.578 143.149C137.582 143.149 137.586 143.149 137.589 143.149C138.043 143.149 138.384 142.914 138.595 142.597L138.603 142.585L138.61 142.573C139.286 141.379 139.5 140.137 139.24 139.006C138.98 137.872 138.254 136.888 137.124 136.202Z" fill="#203A64" stroke="#203A64" stroke-width="0.8"/>
<path d="M169.021 140.427L169.021 140.427L169.016 140.434C168.733 140.858 168.384 141.276 167.972 141.62L167.958 141.631L167.945 141.644C167.495 142.094 167.499 142.767 167.833 143.213L167.85 143.236L167.87 143.256C168.1 143.486 168.428 143.598 168.676 143.598C168.92 143.598 169.242 143.49 169.47 143.268C170.019 142.796 170.485 142.25 170.87 141.711L170.87 141.711L170.874 141.705C172.996 138.63 172.584 135.102 171.104 132.158C172.107 132.136 173.099 131.823 173.944 131.292C174.475 131.057 174.814 130.407 174.578 129.816C174.364 129.281 173.73 128.925 173.14 129.125C173.02 129.147 172.931 129.207 172.883 129.243C172.836 129.279 172.792 129.32 172.759 129.352C171.647 130.051 170.141 129.992 169.009 129.209C168.577 128.777 168.134 128.334 167.619 127.89C166.649 126.7 166.177 125.249 166.382 123.739L166.383 123.738C166.514 122.754 167.101 121.963 167.969 121.495L168.021 121.467L168.062 121.426C168.462 121.026 168.643 120.319 168.137 119.814C167.81 119.486 167.365 119.377 166.935 119.484L166.884 119.497L166.838 119.522C165.38 120.333 164.413 121.788 164.171 123.401L164.17 123.404C164.051 124.236 164.066 125.117 164.252 125.978C161.219 124.85 157.78 125.492 155.399 127.73L155.399 127.729L155.391 127.738C154.935 128.194 154.935 128.895 155.391 129.351C155.601 129.561 155.859 129.685 156.137 129.701C156.412 129.716 156.671 129.623 156.885 129.462L156.9 129.451L156.914 129.439C158.432 128.061 160.093 127.645 161.687 127.802C163.286 127.961 164.834 128.699 166.095 129.668C166.595 130.168 167.053 130.626 167.587 131.013C169.9 133.565 171.1 137.446 169.021 140.427Z" fill="#203A64" stroke="#203A64" stroke-width="0.8"/>
<defs>
<filter id="filter0_b" x="42.0005" y="67.1249" width="223" height="469.875" filterUnits="userSpaceOnUse" color-interpolation-filters="sRGB">
<feFlood flood-opacity="0" result="BackgroundImageFix"/>
<feGaussianBlur in="BackgroundImage" stdDeviation="10"/>
<feComposite in2="SourceAlpha" operator="in" result="effect1_backgroundBlur"/>
<feBlend mode="normal" in="SourceGraphic" in2="effect1_backgroundBlur" result="shape"/>
</filter>
<linearGradient id="paint0_linear" x1="299.981" y1="269.826" x2="299.981" y2="392.035" gradientUnits="userSpaceOnUse">
<stop stop-color="#D91A82"/>
<stop offset="1" stop-color="#D91A82" stop-opacity="0"/>
</linearGradient>
<linearGradient id="paint1_linear" x1="180.789" y1="21.5671" x2="180.789" y2="388.071" gradientUnits="userSpaceOnUse">
<stop stop-color="#D91A82"/>
<stop offset="1" stop-color="#D91A82" stop-opacity="0"/>
</linearGradient>
<linearGradient id="paint2_linear" x1="314.585" y1="227.954" x2="314.585" y2="413.265" gradientUnits="userSpaceOnUse">
<stop stop-color="#D91A82"/>
<stop offset="1" stop-color="#D91A82" stop-opacity="0"/>
</linearGradient>
<linearGradient id="paint3_linear" x1="354.259" y1="190.86" x2="354.259" y2="296.825" gradientUnits="userSpaceOnUse">
<stop stop-color="#D91A82"/>
<stop offset="1" stop-color="#D91A82" stop-opacity="0"/>
</linearGradient>
</defs>
</svg>
