<svg width="149" height="40" viewBox="0 0 149 40" fill="none" xmlns="http://www.w3.org/2000/svg">
<path d="M60.8779 39.9998C60.8075 39.902 60.6457 39.7622 60.3925 39.5805C60.1533 39.4128 59.8508 39.2171 59.4851 38.9934C59.1193 38.7698 58.7183 38.5392 58.2822 38.3016C57.8461 38.05 57.4029 37.8054 56.9527 37.5677C56.5166 37.3162 56.0945 37.0855 55.6865 36.8759C55.2785 36.6522 54.9198 36.4635 54.6103 36.3098C54.2445 36.1141 53.9701 35.9743 53.7873 35.8905C53.6044 35.7926 53.4988 35.7367 53.4707 35.7227C53.4144 35.8206 53.3722 35.8975 53.3441 35.9534C53.33 35.9953 53.3089 36.0722 53.2808 36.184C53.2667 36.2818 53.2456 36.4286 53.2175 36.6243C53.2034 36.806 53.1753 37.0785 53.1331 37.4419H52.922V37.7984C52.7391 37.8123 52.5774 37.8263 52.4367 37.8403C52.31 37.8543 52.1975 37.8752 52.099 37.9032V38.1338C51.8599 38.1618 51.6277 38.1967 51.4026 38.2387C51.1916 38.2806 50.9806 38.3155 50.7695 38.3435C50.7414 38.3994 50.7203 38.4483 50.7062 38.4902C50.7062 38.5322 50.6992 38.5671 50.6851 38.5951C50.2349 38.623 49.8129 38.665 49.4189 38.7209C49.0672 35.7717 48.7014 32.8714 48.3216 30.02C47.9417 27.1546 47.5689 24.2264 47.2031 21.2352C47.3297 21.1933 47.4915 21.1444 47.6885 21.0885C47.8714 21.0326 48.0543 20.9627 48.2372 20.8788C48.4341 20.7949 48.61 20.7041 48.7647 20.6062C48.9336 20.5084 49.0602 20.4036 49.1446 20.2918C49.2712 20.3197 49.4119 20.3407 49.5667 20.3546C49.7355 20.3686 49.8902 20.3896 50.0309 20.4175C50.1857 20.4455 50.3193 20.4944 50.4319 20.5643C50.5585 20.6342 50.6429 20.739 50.6851 20.8788H50.9173C51.0157 21.8712 51.0931 22.8147 51.1494 23.7092C51.2057 24.6038 51.2619 25.4634 51.3182 26.288C51.3745 27.1127 51.4308 27.9024 51.487 28.6572C51.5574 29.398 51.6488 30.1178 51.7614 30.8167C51.8176 30.8027 52.0287 30.7258 52.3945 30.5861C52.7743 30.4323 53.2386 30.2576 53.7873 30.0619C54.35 29.8523 54.969 29.6286 55.6443 29.391C56.3337 29.1534 57.009 28.9367 57.6702 28.7411C58.3314 28.5314 58.9575 28.3637 59.5484 28.2379C60.1393 28.0981 60.6176 28.0282 60.9834 28.0282C61.0256 28.0841 61.0959 28.182 61.1944 28.3217C61.2929 28.4615 61.3914 28.6153 61.4898 28.783C61.6024 28.9507 61.7009 29.1115 61.7853 29.2652C61.8697 29.419 61.926 29.5378 61.9541 29.6216C61.3773 29.8592 60.8286 30.0899 60.3081 30.3135C59.7875 30.5371 59.274 30.7748 58.7676 31.0264C58.2611 31.264 57.7476 31.5295 57.227 31.8231C56.7206 32.1026 56.193 32.4101 55.6443 32.7456C55.6443 32.8574 55.7428 33.0111 55.9398 33.2068C56.1367 33.4025 56.397 33.6261 56.7206 33.8777C57.0442 34.1293 57.4099 34.4019 57.8179 34.6954C58.24 34.9889 58.662 35.2824 59.0841 35.576C59.5062 35.8695 59.9212 36.156 60.3292 36.4356C60.7372 36.7151 61.0889 36.9737 61.3843 37.2113C62.144 37.7984 62.8053 38.1268 63.368 38.1967C63.368 38.3924 63.3961 38.5881 63.4524 38.7838C63.5228 38.9934 63.5579 39.2101 63.5579 39.4337C63.361 39.5036 63.0937 39.5875 62.756 39.6853C62.4184 39.7971 62.13 39.853 61.8908 39.853C61.6376 39.853 61.4054 39.7901 61.1944 39.6643C61.1381 39.7063 61.0819 39.7552 61.0256 39.8111C60.9693 39.867 60.9201 39.9299 60.8779 39.9998Z" fill="#FDE030"/>
<path d="M67.1117 38.3645C66.7881 38.2247 66.563 38.1548 66.4364 38.1548C66.366 38.1548 66.3309 38.1758 66.3309 38.2177V38.2596C66.3309 38.3295 66.3098 38.3645 66.2676 38.3645C66.2113 38.3645 66.1409 38.3435 66.0565 38.3016C65.9862 38.2456 65.9158 38.1827 65.8455 38.1129C65.7752 38.029 65.7119 37.9521 65.6556 37.8822C65.5993 37.7984 65.5641 37.7285 65.5501 37.6726H65.3179C65.3461 37.7564 65.3601 37.8054 65.3601 37.8193C65.3461 37.8473 65.339 37.8613 65.339 37.8613C65.339 37.9032 65.4305 38.022 65.6134 38.2177H64.9381C64.4597 37.2533 64.0799 36.3587 63.7985 35.534C63.5312 34.7094 63.3202 33.9546 63.1654 33.2697C63.1091 33.0181 63.0529 32.7106 62.9966 32.3472C62.9403 31.9838 62.8911 31.5854 62.8489 31.1521C62.8067 30.7188 62.7785 30.2786 62.7645 29.8313C62.7363 29.37 62.7223 28.9297 62.7223 28.5104C62.7223 27.8116 62.7715 27.3084 62.87 27.0009C62.9685 26.6794 63.074 26.5187 63.1865 26.5187C63.2287 26.5746 63.285 26.6375 63.3554 26.7074C63.3554 26.6375 63.3835 26.5746 63.4398 26.5187H63.6719C63.6719 26.3509 63.7282 26.2601 63.8407 26.2461C63.9673 26.2321 64.094 26.2251 64.2206 26.2251C64.6567 26.2251 65.0366 26.295 65.3601 26.4348C65.6837 26.5606 65.8877 26.8052 65.9721 27.1686C65.9862 27.2245 65.9932 27.3783 65.9932 27.6299C66.0073 27.8675 66.0214 28.168 66.0354 28.5314C66.0495 28.8808 66.0636 29.2722 66.0776 29.7055C66.1058 30.1248 66.1269 30.5371 66.1409 30.9425C66.1691 31.3478 66.1902 31.7252 66.2043 32.0747C66.2324 32.4101 66.2605 32.6757 66.2887 32.8714C66.359 33.3885 66.4575 33.9266 66.5841 34.4857C66.7107 35.0309 66.8303 35.548 66.9429 36.0372C67.0695 36.5264 67.175 36.9597 67.2594 37.3371C67.3438 37.7005 67.386 37.9451 67.386 38.0709C67.386 38.2247 67.3438 38.3016 67.2594 38.3016C67.175 38.2876 67.1258 38.3085 67.1117 38.3645ZM65.74 23.9608C64.9521 24.4919 64.1573 24.7575 63.3554 24.7575C62.9474 24.7575 62.659 24.6527 62.4901 24.443C62.3072 24.2334 62.2158 23.9468 62.2158 23.5834C62.2439 23.4856 62.258 23.3528 62.258 23.1851C62.258 23.0034 62.3002 22.7727 62.3846 22.4932C62.5675 22.4513 62.8067 22.3814 63.1021 22.2835C63.4116 22.1857 63.6649 22.1368 63.8618 22.1368C63.9744 22.1368 64.0869 22.1577 64.1995 22.1997C64.2135 22.1857 64.2346 22.1647 64.2628 22.1368C64.2909 22.1088 64.312 22.0739 64.3261 22.0319C64.3683 22.1018 64.4035 22.1717 64.4316 22.2416C64.4597 22.2975 64.4879 22.3394 64.516 22.3674C64.5019 22.4233 64.4879 22.4722 64.4738 22.5141C64.4597 22.5421 64.4457 22.5701 64.4316 22.598C64.7411 22.4023 64.9803 22.3045 65.1491 22.3045C65.3742 22.3045 65.5079 22.4513 65.5501 22.7448C65.6063 23.2619 65.6907 23.5834 65.8033 23.7092C65.7752 23.821 65.7541 23.9049 65.74 23.9608Z" fill="#FDE030"/>
<path d="M73.3666 39.4128C72.7054 39.3708 72.1286 39.1612 71.6362 38.7838C71.1578 38.4064 70.7569 37.9312 70.4333 37.3581C70.1238 36.771 69.8916 36.1211 69.7369 35.4082C69.5821 34.6814 69.5048 33.9616 69.5048 33.2487C69.5048 32.6897 69.554 32.1375 69.6525 31.5924C69.7369 31.0473 69.8705 30.5371 70.0534 30.0619C70.2504 29.5867 70.4825 29.1604 70.7498 28.783C71.0171 28.4056 71.3337 28.0981 71.6995 27.8605C72.1919 27.539 72.628 27.2734 73.0079 27.0638C73.4018 26.8541 73.7746 26.6864 74.1263 26.5606C74.478 26.4348 74.8157 26.3439 75.1393 26.288C75.4628 26.2321 75.8075 26.2042 76.1733 26.2042C76.6376 26.2042 77.1581 26.2461 77.7349 26.33C77.6083 25.9526 77.4958 25.5892 77.3973 25.2397C77.3129 24.8903 77.2496 24.6038 77.2073 24.3801C77.2636 24.3382 77.334 24.2543 77.4184 24.1285C77.5169 24.0027 77.5661 23.8979 77.5661 23.814C77.5661 23.7581 77.5239 23.7162 77.4395 23.6882C77.3832 23.4786 77.334 23.241 77.2918 22.9754C77.2496 22.7098 77.2285 22.4443 77.2285 22.1787C77.2285 21.8991 77.2496 21.6545 77.2918 21.4449C77.334 21.2352 77.5309 21.0954 77.8826 21.0256V20.8578C77.9389 20.8159 78.0374 20.746 78.1781 20.6482C78.3328 20.5503 78.4524 20.5014 78.5368 20.5014C78.5368 20.5154 78.5439 20.5503 78.5579 20.6062C78.5861 20.6622 78.6142 20.725 78.6424 20.7949C78.6846 20.8508 78.7268 20.9068 78.769 20.9627C78.8112 21.0186 78.8604 21.0465 78.9167 21.0465C78.8886 20.9906 78.8745 20.9627 78.8745 20.9627V20.9417C78.8745 20.9557 78.8815 20.9627 78.8956 20.9627C78.9097 20.9627 78.9097 20.9557 78.8956 20.9417C78.8956 20.9137 78.9519 20.8788 79.0644 20.8369C79.0644 20.7949 79.0785 20.7181 79.1066 20.6062H79.2754C79.2895 20.6482 79.3106 20.725 79.3388 20.8369H79.5076C79.5498 20.7111 79.6061 20.5853 79.6764 20.4595H79.8241C79.8241 20.4735 79.8241 20.4525 79.8241 20.3966C79.8241 20.3407 79.8312 20.3127 79.8452 20.3127H79.9718C79.9718 20.2708 79.9859 20.2079 80.014 20.124C80.0844 20.124 80.1196 20.145 80.1196 20.1869C80.1196 20.2149 80.1055 20.2428 80.0774 20.2708C80.0633 20.2848 80.0563 20.3057 80.0563 20.3337C80.0563 20.3477 80.1055 20.4175 80.204 20.5433C80.3165 20.6552 80.4291 20.746 80.5416 20.8159C80.6964 21.1374 80.8441 21.5847 80.9848 22.1577C81.1255 22.7168 81.2662 23.3528 81.4068 24.0656C81.5475 24.7645 81.6882 25.5193 81.8289 26.33C81.9837 27.1267 82.1455 27.9304 82.3143 28.7411C82.4831 29.5517 82.666 30.3415 82.8629 31.1102C83.074 31.865 83.3061 32.5569 83.5593 33.1858C83.686 33.4934 83.7844 33.8288 83.8548 34.1922C83.9251 34.5556 84.0025 34.8981 84.0869 35.2196C84.1713 35.541 84.2698 35.8276 84.3824 36.0792C84.509 36.3308 84.6708 36.4915 84.8677 36.5614C84.9944 36.6592 85.1491 36.7501 85.332 36.8339C85.332 37.0017 85.3179 37.1065 85.2898 37.1484C85.2757 37.1764 85.2546 37.2043 85.2265 37.2323C85.1983 37.2463 85.1632 37.2812 85.121 37.3371C85.0928 37.393 85.0577 37.5258 85.0155 37.7355C84.5231 38.0709 84.0377 38.2387 83.5593 38.2387C83.4046 38.2387 83.3061 38.2107 83.2639 38.1548C83.2358 38.0989 83.1936 38.022 83.1373 37.9242C82.7856 38.1618 82.4761 38.2806 82.2088 38.2806C82.0681 38.2806 81.9344 38.2736 81.8078 38.2596C81.6953 38.2317 81.5827 38.2177 81.4702 38.2177H81.2169C81.1466 37.9941 81.0622 37.7145 80.9637 37.3791C80.8793 37.0436 80.7808 36.6942 80.6682 36.3308C80.5698 35.9673 80.4713 35.6179 80.3728 35.2824C80.2743 34.933 80.1829 34.6395 80.0985 34.4019C79.7186 35.2405 79.3317 35.9534 78.9378 36.5404C78.5579 37.1135 78.1148 37.5957 77.6083 37.9871C77.1018 38.3645 76.511 38.665 75.8357 38.8886C75.1604 39.1122 74.3373 39.287 73.3666 39.4128ZM74.6117 36.2888C74.8368 36.5823 75.0478 36.7291 75.2448 36.7291C75.5402 36.7291 75.8497 36.5194 76.1733 36.1001C76.4969 35.6668 76.7853 35.1427 77.0385 34.5277C77.3058 33.8987 77.5239 33.2418 77.6927 32.5569C77.8615 31.858 77.946 31.236 77.946 30.6909C77.946 29.7544 77.7631 29.0835 77.3973 28.6782C77.0315 28.2728 76.5883 28.0701 76.0678 28.0701C75.5895 28.0701 75.0548 28.2518 74.464 28.6153V28.762C73.9012 28.9577 73.5003 29.3071 73.2611 29.8103C73.0219 30.3135 72.9023 30.8866 72.9023 31.5295C72.9023 31.9489 72.9445 32.3822 73.029 32.8294C73.1274 33.2627 73.2541 33.689 73.4088 34.1084C73.5636 34.5277 73.7394 34.926 73.9364 35.3034C74.1474 35.6808 74.3725 36.0093 74.6117 36.2888Z" fill="#FDE030"/>
<path d="M93.7394 25.8687C93.6691 25.7569 93.6339 25.666 93.6339 25.5962C93.9294 25.6241 94.1756 25.7289 94.3725 25.9106C94.5835 26.0784 94.7594 26.281 94.9001 26.5187C95.0408 26.7563 95.1463 27.0079 95.2166 27.2734C95.301 27.525 95.3573 27.7557 95.3855 27.9653H94.9634C94.8368 27.9653 94.7313 27.9723 94.6469 27.9863C94.5624 28.0003 94.4921 28.0282 94.4358 28.0701C94.3796 28.1121 94.3233 28.182 94.267 28.2798C94.2248 28.3637 94.1756 28.4895 94.1193 28.6572C93.866 28.7271 93.6339 28.8109 93.4229 28.9088C93.2119 28.9926 92.9868 29.0346 92.7476 29.0346C92.7194 29.0346 92.6913 29.0346 92.6632 29.0346C92.635 29.0206 92.6069 29.0136 92.5788 29.0136V28.9297C92.5788 28.8179 92.4944 28.6362 92.3255 28.3846C92.1567 28.133 91.9386 27.8814 91.6713 27.6299C91.404 27.3643 91.1156 27.1337 90.8061 26.938C90.4966 26.7423 90.2082 26.6445 89.9409 26.6445C89.758 26.6445 89.6032 26.6794 89.4766 26.7493C89.153 26.8052 88.8928 26.8751 88.6958 26.9589C88.5129 27.0428 88.4215 27.1476 88.4215 27.2734C88.4215 27.4691 88.5692 27.6858 88.8646 27.9234C89.1741 28.147 89.5681 28.3707 90.0464 28.5943C90.5247 28.8179 91.0523 29.0346 91.6291 29.2442C92.22 29.4399 92.8039 29.6076 93.3807 29.7474C94.3936 30.013 95.3995 30.2506 96.3984 30.4603C97.3973 30.656 98.3047 30.8516 99.1207 31.0473C100.134 31.2989 100.633 31.7462 100.619 32.3891C100.619 32.5149 100.605 32.6407 100.577 32.7665C100.549 32.8783 100.513 33.0111 100.471 33.1649C100.246 33.8637 99.7819 34.5626 99.0785 35.2615C98.3891 35.9604 97.538 36.5893 96.525 37.1484C95.5121 37.7075 94.3796 38.1618 93.1274 38.5112C91.8894 38.8606 90.6162 39.0354 89.3078 39.0354C87.9853 39.0354 86.9161 38.6999 86.1001 38.029C86.1283 38.001 86.2127 37.9521 86.3534 37.8822C86.0157 37.6446 85.7695 37.3581 85.6148 37.0226C85.46 36.6872 85.3826 36.3308 85.3826 35.9534C85.3826 35.6459 85.4319 35.3384 85.5304 35.0309C85.6288 34.7094 85.7695 34.4159 85.9524 34.1503C86.1353 33.8707 86.3534 33.6331 86.6066 33.4374C86.8739 33.2278 87.1694 33.067 87.4929 32.9552V32.7456C87.6758 32.6897 87.8798 32.6198 88.1049 32.5359C88.33 32.452 88.5481 32.3752 88.7591 32.3053C88.9842 32.2354 89.1953 32.1725 89.3922 32.1166C89.5892 32.0607 89.765 32.0327 89.9198 32.0327C90.1027 32.0327 90.2926 32.0607 90.4896 32.1166C90.7006 32.1585 90.8061 32.2424 90.8061 32.3682C90.8061 32.5639 90.7076 32.7595 90.5107 32.9552C90.3137 33.1509 90.0956 33.3606 89.8565 33.5842C89.6314 33.8078 89.4203 34.0524 89.2234 34.318C89.0405 34.5836 88.9491 34.8771 88.9491 35.1986C88.9491 35.6459 89.0968 35.9604 89.3922 36.1421C89.6877 36.3098 90.1167 36.3936 90.6795 36.3936C91.2282 36.3936 91.8472 36.3238 92.5366 36.184C93.24 36.0442 93.8942 35.8555 94.4991 35.6179C95.1182 35.3803 95.6317 35.1077 96.0397 34.8002C96.4617 34.4788 96.6727 34.1363 96.6727 33.7729C96.6727 33.5213 96.518 33.2977 96.2085 33.102C95.913 32.8923 95.5261 32.7036 95.0478 32.5359C94.5695 32.3682 94.0278 32.2144 93.4229 32.0747C92.832 31.9349 92.2341 31.8091 91.6291 31.6973C91.0382 31.5715 90.4755 31.4527 89.9409 31.3408C89.4063 31.229 88.9631 31.1172 88.6114 31.0054C87.2749 30.6 86.2408 30.1807 85.5093 29.7474C84.7777 29.3001 84.4119 28.769 84.4119 28.154C84.4119 27.6648 84.6018 27.2175 84.9817 26.8122C85.3615 26.4068 85.8188 26.0574 86.3534 25.7639C86.9021 25.4704 87.4718 25.2467 88.0627 25.093C88.6536 24.9252 89.1601 24.8414 89.5821 24.8414C90.2012 24.8414 90.8483 24.9532 91.5236 25.1768C92.1989 25.3865 92.9375 25.6171 93.7394 25.8687Z" fill="#FDE030"/>
<path fill-rule="evenodd" clip-rule="evenodd" d="M0 0H39.2547V39.2547H0V0ZM34.1031 5.15153H5.15153V34.1031H34.1031V5.15153ZM11.5833 19.4197L25.7408 32.8195V25.1328L19.7046 19.4197L25.4115 14.122V6.43526L11.5833 19.4197Z" fill="#FDE030"/>
<path d="M46.4609 0.339788V15.0639H52.8313C55.8584 15.0639 57.8689 13.5236 57.8689 10.8959C57.8689 9.26489 56.9427 8.06431 55.5647 7.45269C56.7168 6.86372 57.5753 5.75375 57.5753 4.19072C57.5753 1.94812 55.6325 0.339788 52.7862 0.339788H46.4609ZM50.0753 3.35258H52.3795C53.3735 3.35258 53.9608 3.87358 53.9608 4.8703C53.9608 5.86701 53.3057 6.38802 52.3795 6.38802H50.0753V3.35258ZM50.0753 8.9251H52.4699C53.5542 8.9251 54.1867 9.44611 54.1867 10.4655C54.1867 11.5301 53.5994 12.0512 52.6054 12.0512H50.0753V8.9251Z" fill="white"/>
<path d="M69.3074 9.44611C69.3074 11.1451 68.4264 12.3909 66.7322 12.3909C65.0379 12.3909 64.1569 11.1451 64.1569 9.44611V0.339788C63.1178 0.158567 61.5139 0.158567 60.4747 0.339788V8.8798C60.4747 13.433 62.7789 15.4037 66.7322 15.4037C70.6854 15.4037 72.9896 13.433 72.9896 8.8798V0.339788C71.9505 0.158567 70.3466 0.158567 69.3074 0.339788V9.44611Z" fill="white"/>
<path d="M81.0635 0C77.6298 0 75.7548 2.17464 75.7548 4.73438C75.7548 7.56595 78.0364 8.63062 79.821 9.21958C81.8541 9.87651 82.5318 10.1257 82.5318 11.0091C82.5318 11.802 81.9445 12.3909 80.6568 12.3909C79.3692 12.3909 78.0138 11.802 76.3647 10.8279C76.1162 11.1451 76.184 13.7954 76.3647 14.2711C77.4942 14.9507 79.1885 15.4037 80.7924 15.4037C83.7743 15.4037 86.1914 13.8407 86.1914 10.7373C86.1914 7.67921 83.842 6.70515 82.0348 6.13884C80.2276 5.57253 79.4144 5.30069 79.4144 4.37194C79.4144 3.51114 80.0695 3.01279 81.086 3.01279C82.193 3.01279 83.4806 3.60175 85.1297 4.57581C85.3782 4.25868 85.3104 1.67629 85.1297 1.13263C84.1357 0.543661 82.7803 0 81.0635 0Z" fill="white"/>
<path d="M92.6241 0.339788C91.585 0.158567 90.0488 0.158567 89.0097 0.339788V15.0639C90.0488 15.2452 91.585 15.2452 92.6241 15.0639V0.339788Z" fill="white"/>
<path d="M109.223 0.339788C108.184 0.158567 106.648 0.158567 105.609 0.339788V8.97041L98.7642 0.339788C97.7251 0.158567 96.9796 0.158567 95.9404 0.339788V15.0639C96.9796 15.2452 98.5157 15.2452 99.5549 15.0639V6.43332L106.4 15.0639C107.439 15.2452 108.184 15.2452 109.223 15.0639V0.339788Z" fill="white"/>
<path d="M116.151 12.0512V9.12897H122.002C122.183 8.08696 122.183 7.1582 122.002 6.11619H116.151V3.35258H122.77C122.951 2.31056 122.951 1.3818 122.77 0.339788H112.537V15.0639H122.77C122.951 14.0219 122.951 13.0932 122.77 12.0512H116.151Z" fill="white"/>
<path d="M130.258 0C126.824 0 124.949 2.17464 124.949 4.73438C124.949 7.56595 127.231 8.63062 129.015 9.21958C131.048 9.87651 131.726 10.1257 131.726 11.0091C131.726 11.802 131.139 12.3909 129.851 12.3909C128.564 12.3909 127.208 11.802 125.559 10.8279C125.311 11.1451 125.378 13.7954 125.559 14.2711C126.689 14.9507 128.383 15.4037 129.987 15.4037C132.969 15.4037 135.386 13.8407 135.386 10.7373C135.386 7.67921 133.036 6.70515 131.229 6.13884C129.422 5.57253 128.609 5.30069 128.609 4.37194C128.609 3.51114 129.264 3.01279 130.28 3.01279C131.387 3.01279 132.675 3.60175 134.324 4.57581C134.572 4.25868 134.505 1.67629 134.324 1.13263C133.33 0.543661 131.975 0 130.258 0Z" fill="white"/>
<path d="M142.948 0C139.514 0 137.639 2.17464 137.639 4.73438C137.639 7.56595 139.921 8.63062 141.705 9.21958C143.739 9.87651 144.416 10.1257 144.416 11.0091C144.416 11.802 143.829 12.3909 142.541 12.3909C141.254 12.3909 139.898 11.802 138.249 10.8279C138.001 11.1451 138.068 13.7954 138.249 14.2711C139.379 14.9507 141.073 15.4037 142.677 15.4037C145.659 15.4037 148.076 13.8407 148.076 10.7373C148.076 7.67921 145.726 6.70515 143.919 6.13884C142.112 5.57253 141.299 5.30069 141.299 4.37194C141.299 3.51114 141.954 3.01279 142.971 3.01279C144.077 3.01279 145.365 3.60175 147.014 4.57581C147.263 4.25868 147.195 1.67629 147.014 1.13263C146.02 0.543661 144.665 0 142.948 0Z" fill="white"/>
</svg>
