<svg width="358" height="435" viewBox="0 0 358 435" fill="none" xmlns="http://www.w3.org/2000/svg">
<circle cx="181.302" cy="191.878" r="143.099" fill="#487C9F"/>
<circle cx="181.302" cy="191.878" r="143.099" fill="url(#paint0_linear)"/>
<circle cx="66.1761" cy="109.201" r="36.7777" transform="rotate(119.821 66.1761 109.201)" fill="#487C9F"/>
<circle cx="66.1761" cy="109.201" r="36.7777" transform="rotate(119.821 66.1761 109.201)" fill="url(#paint1_linear)"/>
<circle cx="249.942" cy="240.53" r="92.1553" transform="rotate(-79.4684 249.942 240.53)" stroke="#487C9F"/>
<circle cx="249.942" cy="240.53" r="92.1553" transform="rotate(-79.4684 249.942 240.53)" stroke="url(#paint2_linear)"/>
<circle cx="62.2117" cy="99.7263" r="52.4823" transform="rotate(-79.4684 62.2117 99.7263)" stroke="#487C9F"/>
<circle cx="62.2117" cy="99.7263" r="52.4823" transform="rotate(-79.4684 62.2117 99.7263)" stroke="url(#paint3_linear)"/>
<path d="M310.272 95.8972L306.474 94.1565L306.457 94.1938L306.441 94.2314L310.272 95.8972ZM300.069 112.38L296.873 109.689L296.83 109.74L296.79 109.791L300.069 112.38ZM286.725 126.116L284.034 122.92L283.992 122.956L283.95 122.993L286.725 126.116ZM262.393 156.727L258.657 154.858L258.64 154.891L258.625 154.924L262.393 156.727ZM257.684 179.096V183.274H261.741L261.86 179.219L257.684 179.096ZM202.741 179.096H198.564V183.274H202.741V179.096ZM206.666 150.84L210.629 152.161L210.636 152.142L210.642 152.122L206.666 150.84ZM216.477 130.04L213.025 127.687L213.025 127.687L216.477 130.04ZM229.035 115.127L226.26 112.005L226.215 112.044L226.172 112.085L229.035 115.127ZM241.986 103.354L244.837 106.408L244.889 106.359L244.94 106.308L241.986 103.354ZM251.797 91.9727L248.398 89.5444L248.398 89.5445L251.797 91.9727ZM248.658 62.1466L245.704 65.1007L245.746 65.1429L245.789 65.1838L248.658 62.1466ZM212.16 64.1089L209.069 61.2986L209.062 61.306L212.16 64.1089ZM204.704 88.8331L204.416 93.0009L208.881 93.3088V88.8331H204.704ZM147.799 84.9086L143.636 84.5544L143.276 88.7843L147.511 89.0764L147.799 84.9086ZM172.523 26.4338L169.569 23.4797L169.569 23.4797L172.523 26.4338ZM265.533 9.95098L264.122 13.883L264.137 13.8886L264.153 13.8941L265.533 9.95098ZM292.22 24.864L289.501 28.036L289.501 28.036L292.22 24.864ZM308.702 46.8411L304.875 48.5156L304.907 48.5888L304.942 48.6608L308.702 46.8411ZM211.375 205.783L208.421 202.829L208.421 202.829L211.375 205.783ZM252.582 205.783L249.563 208.67L249.627 208.737L249.695 208.802L252.582 205.783ZM252.582 246.99L249.628 244.036L249.628 244.036L252.582 246.99ZM211.375 246.99L208.356 249.877L208.42 249.945L208.488 250.009L211.375 246.99ZM310.411 73.1352C310.411 81.5962 309.041 88.5568 306.474 94.1565L314.07 97.6378C317.259 90.6792 318.767 82.4651 318.767 73.1352H310.411ZM306.441 94.2314C303.984 99.8819 300.796 105.03 296.873 109.689L303.264 115.071C307.713 109.788 311.327 103.948 314.103 97.5629L306.441 94.2314ZM296.79 109.791C293.045 114.535 288.795 118.911 284.034 122.92L289.416 129.311C294.598 124.948 299.244 120.167 303.348 114.969L296.79 109.791ZM283.95 122.993C279.086 127.317 274.498 132.04 270.186 137.16L276.578 142.542C280.638 137.72 284.946 133.287 289.501 129.238L283.95 122.993ZM270.186 137.16C265.772 142.403 261.932 148.308 258.657 154.858L266.13 158.595C269.134 152.587 272.62 147.242 276.578 142.542L270.186 137.16ZM258.625 154.924C255.426 161.611 253.782 169.68 253.508 178.973L261.86 179.219C262.11 170.721 263.605 163.877 266.162 158.529L258.625 154.924ZM257.684 174.919H202.741V183.274H257.684V174.919ZM206.919 179.096C206.919 168.419 208.193 159.47 210.629 152.161L202.703 149.519C199.906 157.908 198.564 167.797 198.564 179.096H206.919ZM210.642 152.122C213.162 144.311 216.273 137.756 219.929 132.394L213.025 127.687C208.832 133.837 205.403 141.148 202.69 149.557L210.642 152.122ZM219.929 132.394C223.706 126.854 227.7 122.121 231.899 118.169L226.172 112.085C221.476 116.505 217.097 121.715 213.025 127.687L219.929 132.394ZM231.811 118.25C236.541 114.045 240.884 110.097 244.837 106.408L239.136 100.3C235.24 103.936 230.948 107.837 226.26 112.005L231.811 118.25ZM244.94 106.308C248.992 102.256 252.42 98.2882 255.197 94.4009L248.398 89.5445C245.942 92.9828 242.83 96.6019 239.032 100.4L244.94 106.308ZM255.197 94.4009C258.372 89.9558 259.9 84.7684 259.9 79.0219H251.544C251.544 83.2174 250.455 86.6639 248.398 89.5444L255.197 94.4009ZM259.9 79.0219C259.9 71.1348 257.117 64.3897 251.526 59.1094L245.789 65.1838C249.617 68.799 251.544 73.3041 251.544 79.0219H259.9ZM251.612 59.1925C246.197 53.7776 238.879 51.2973 230.213 51.2973V59.6527C237.244 59.6527 242.223 61.6202 245.704 65.1007L251.612 59.1925ZM230.213 51.2973C222.059 51.2973 214.968 54.8097 209.069 61.2986L215.251 66.9191C219.818 61.8962 224.762 59.6527 230.213 59.6527V51.2973ZM209.062 61.306C203.126 67.8671 200.526 77.2982 200.526 88.8331H208.881C208.881 78.3909 211.252 71.3392 215.258 66.9117L209.062 61.306ZM204.991 84.6653L148.086 80.7408L147.511 89.0764L204.416 93.0009L204.991 84.6653ZM151.961 85.2629C153.989 61.434 161.924 42.9405 175.477 29.3879L169.569 23.4797C154.342 38.7066 145.794 59.1964 143.636 84.5544L151.961 85.2629ZM175.477 29.3879C189.227 15.6381 207.333 8.63438 230.213 8.63438V0.279029C205.475 0.279029 185.122 7.9267 169.569 23.4797L175.477 29.3879ZM230.213 8.63438C243.182 8.63438 254.462 10.4153 264.122 13.883L266.945 6.01897C256.197 2.16095 243.93 0.279029 230.213 0.279029V8.63438ZM264.153 13.8941C274.2 17.4107 282.624 22.1413 289.501 28.036L294.938 21.6921C287.164 15.0284 277.796 9.817 266.913 6.00785L264.153 13.8941ZM289.501 28.036C296.376 33.9292 301.478 40.7517 304.875 48.5156L312.53 45.1666C308.601 36.1861 302.714 28.3572 294.938 21.6921L289.501 28.036ZM304.942 48.6608C308.579 56.1782 310.411 64.3173 310.411 73.1352H318.767C318.767 63.1155 316.674 53.7253 312.463 45.0215L304.942 48.6608ZM206.919 226.19C206.919 219.494 209.324 213.742 214.329 208.737L208.421 202.829C201.914 209.336 198.564 217.188 198.564 226.19H206.919ZM214.329 208.737C219.636 203.43 225.533 200.934 232.175 200.934V192.579C223.119 192.579 215.149 196.1 208.421 202.829L214.329 208.737ZM232.175 200.934C238.808 200.934 244.542 203.421 249.563 208.67L255.601 202.895C249.111 196.11 241.24 192.579 232.175 192.579V200.934ZM249.695 208.802C254.944 213.823 257.431 219.557 257.431 226.19H265.786C265.786 217.125 262.255 209.254 255.47 202.764L249.695 208.802ZM257.431 226.19C257.431 232.832 254.935 238.729 249.628 244.036L255.536 249.944C262.265 243.216 265.786 235.246 265.786 226.19H257.431ZM249.628 244.036C244.623 249.041 238.871 251.446 232.175 251.446V259.801C241.177 259.801 249.029 256.451 255.536 249.944L249.628 244.036ZM232.175 251.446C225.472 251.446 219.555 249.033 214.263 243.971L208.488 250.009C215.23 256.458 223.18 259.801 232.175 259.801V251.446ZM214.394 244.102C209.332 238.81 206.919 232.893 206.919 226.19H198.564C198.564 235.185 201.907 243.135 208.356 249.877L214.394 244.102Z" fill="white"/>
<g filter="url(#filter0_b)">
<path d="M176.706 157.117L177.297 158.038L178.342 158.361C192.261 162.669 205.754 169.079 218.291 177.725L201.316 201.866C196.835 198.842 192.212 196.173 187.494 193.814L184.074 192.104L183.227 195.833C178.209 217.911 158.112 234.5 134.499 234.5C110.887 234.5 90.7901 217.911 85.7723 195.833L84.925 192.104L81.5053 193.814C76.5072 196.313 71.616 199.16 66.8868 202.408L49.0507 178.885C62.0527 169.65 76.1229 162.859 90.6565 158.361L91.7014 158.038L92.293 157.117C101.346 143.035 116.919 134 134.499 134C152.079 134 167.653 143.035 176.706 157.117Z" fill="white" fill-opacity="0.6" stroke="#203A64" stroke-width="6"/>
<path d="M101.822 399.322V396.322H98.8218H49.9046L100.899 260.677H168.1L219.094 396.322H170.177H167.177V399.322V432H101.822V399.322Z" fill="white" fill-opacity="0.6" stroke="#203A64" stroke-width="6"/>
</g>
<path d="M113.634 188.347C113.886 188.347 114.151 188.347 114.422 188.331C114.453 189.927 115.067 191.526 115.969 192.877C116.957 194.356 118.32 195.579 119.726 196.19L119.727 196.191C122.489 197.379 125.441 197.447 128.009 197.126C130.458 196.82 132.586 196.155 133.896 195.746C133.959 195.727 134.02 195.708 134.079 195.689L134.476 195.576L134.476 195.576L134.484 195.573C135.899 195.138 136.959 195.267 137.801 195.911L137.801 195.911L137.805 195.914C138.518 196.446 139.079 197.282 139.514 198.276C139.948 199.267 140.244 200.385 140.445 201.446C140.647 202.505 140.751 203.495 140.805 204.225C140.832 204.589 140.846 204.888 140.854 205.096C140.858 205.201 140.86 205.282 140.861 205.338C140.861 205.361 140.862 205.38 140.862 205.394C140.862 205.414 140.862 205.424 140.862 205.424C140.862 205.687 140.952 205.938 141.137 206.124C141.323 206.309 141.573 206.399 141.837 206.399H149.652C149.785 206.399 149.913 206.376 150.037 206.321C150.159 206.267 150.256 206.19 150.337 206.109C150.532 205.914 150.627 205.638 150.627 205.424H150.627L150.626 205.416C150.571 202.733 150.246 200.104 149.652 197.528C153.716 195.361 155.869 193.055 156.802 190.803C157.713 188.603 157.436 186.518 156.738 184.776C158.533 183.067 159.248 180.544 158.601 178.186C158.178 176.559 157.318 175.353 156.152 174.77C155.685 174.536 155.156 174.405 154.634 174.375C155.101 172.654 154.628 170.807 153.398 169.514C151.972 167.81 149.702 167.049 147.56 167.583C147.392 166.105 146.345 164.735 145.111 163.876C143.815 162.974 141.7 162.33 139.905 163.353C139.52 162.761 138.977 162.271 138.345 161.953C137.167 161.305 135.524 161.044 133.912 161.11C132.299 161.176 130.649 161.573 129.454 162.306C128.868 162.628 128.42 163.079 128.072 163.612C127.217 163.188 126.242 163.008 125.309 163.116C123.438 163.236 121.793 164.138 120.642 165.598C118.346 165.099 116.341 165.123 114.699 165.687C113.027 166.262 111.76 167.388 110.964 169.024C109.064 169.973 107.621 171.314 106.651 173.034C105.661 174.789 105.177 176.915 105.177 179.382C105.177 182.492 105.999 184.866 107.782 186.407C109.197 187.697 111.199 188.347 113.622 188.347H113.634ZM151.958 186.059C151.995 186.282 152.09 186.503 152.26 186.669L151.592 187.338L153.031 186.954C153.777 186.755 154.478 186.435 155.134 186.031C155.669 187.731 155.467 189.357 154.544 190.912C153.581 192.536 151.817 194.103 149.224 195.567L149.18 195.391L149.125 195.113L149.122 195.099L149.118 195.086C149.003 194.663 148.901 194.291 148.815 193.982C148.773 193.828 148.735 193.69 148.702 193.569C148.651 193.386 148.612 193.242 148.586 193.142C148.573 193.091 148.564 193.054 148.558 193.03C148.558 193.029 148.558 193.029 148.558 193.029V193.024L148.55 192.986C148.496 192.714 148.317 192.502 148.121 192.372C147.926 192.242 147.661 192.158 147.39 192.212C147.119 192.266 146.906 192.446 146.776 192.641C146.653 192.826 146.571 193.074 146.609 193.33C146.609 193.342 146.61 193.355 146.611 193.368C146.616 193.412 146.627 193.469 146.658 193.53C146.674 193.562 146.691 193.588 146.707 193.608L146.722 193.663C146.749 193.758 146.789 193.898 146.839 194.077C146.939 194.433 147.081 194.945 147.251 195.57L147.306 195.844L147.309 195.86L147.314 195.876C147.426 196.269 147.539 196.721 147.652 197.232L147.653 197.234C148.192 199.609 148.578 202.03 148.714 204.449H142.853C142.799 203.393 142.63 201.625 142.159 199.812C141.629 197.77 140.695 195.586 139.029 194.352L139.029 194.352C137.584 193.283 135.894 193.113 133.965 193.715L133.567 193.829L133.567 193.829L133.556 193.833L133.497 193.851C132.228 194.255 130.188 194.905 127.865 195.204C125.504 195.508 122.883 195.446 120.503 194.421L120.502 194.421C119.44 193.969 118.332 192.994 117.525 191.779C116.781 190.659 116.321 189.38 116.356 188.178C117.823 187.938 119.237 187.549 120.596 187.059L120.596 187.059L120.609 187.054C121.075 186.868 121.384 186.305 121.176 185.787C120.997 185.338 120.426 184.99 119.887 185.285C118.963 185.635 118.005 185.917 117.011 186.131C117.245 185.776 117.539 185.447 117.892 185.157C118.304 184.842 118.362 184.265 118.102 183.832L118.092 183.815L118.079 183.798C117.765 183.379 117.184 183.319 116.749 183.58L116.707 183.606L116.672 183.64L116.629 183.684C115.722 184.426 115.08 185.378 114.701 186.483C112.198 186.703 110.335 186.19 109.052 185.112C107.752 184.019 107.126 182.042 107.126 179.382C107.126 176.061 108.129 173.543 110.09 171.876C109.994 172.48 109.946 173.085 109.946 173.69C109.946 173.953 110.036 174.204 110.222 174.39C110.407 174.575 110.658 174.665 110.921 174.665C111.184 174.665 111.435 174.575 111.621 174.39C111.806 174.204 111.896 173.953 111.896 173.69C111.896 172.506 112.105 171.37 112.478 170.226L112.523 170.181L112.554 170.109C113.269 168.412 114.553 167.608 116.048 167.313C117.565 167.014 119.293 167.243 120.819 167.638C121.894 167.921 122.907 168.26 123.918 168.709L123.925 168.712L123.932 168.715C124.387 168.897 124.988 168.733 125.199 168.205L124.827 168.056L125.199 168.205C125.379 167.753 125.219 167.158 124.7 166.942C124.039 166.634 123.38 166.393 122.725 166.193C123.476 165.557 124.439 165.15 125.437 165.063L125.454 165.061L125.472 165.058C126.308 164.911 127.196 165.204 127.792 165.893C127.92 166.06 128.082 166.181 128.271 166.244C128.462 166.308 128.656 166.304 128.832 166.26C129.074 166.199 129.248 166.031 129.355 165.871C129.463 165.708 129.537 165.503 129.537 165.297C129.537 164.902 129.77 164.439 130.439 164.028L130.439 164.027C131.341 163.47 132.648 163.136 133.969 163.073C135.293 163.011 136.559 163.224 137.388 163.691L137.397 163.696L137.406 163.7C137.973 163.984 138.334 164.543 138.334 165.124C138.334 165.716 138.826 166.099 139.308 166.099C139.568 166.099 139.879 166.009 140.088 165.709C140.637 165.043 141.289 164.808 141.944 164.82C142.621 164.833 143.322 165.111 143.91 165.512C144.491 165.909 145.017 166.49 145.313 167.097C145.611 167.706 145.651 168.275 145.397 168.72L145.392 168.73L145.387 168.74C145.223 169.067 145.176 169.595 145.619 169.928C145.777 170.047 145.98 170.146 146.211 170.159C146.436 170.171 146.658 170.098 146.843 169.935C146.862 169.925 146.889 169.911 146.923 169.894C147.005 169.854 147.127 169.798 147.281 169.738C147.592 169.619 148.026 169.488 148.528 169.439C149.517 169.341 150.771 169.556 151.877 170.846L151.887 170.858L151.897 170.869C153.017 171.989 153.125 173.781 152.2 175.066L152.182 175.092L152.167 175.121C152.164 175.127 152.161 175.133 152.158 175.14C152.108 175.239 152.01 175.432 152.01 175.645V175.702V175.702V175.702V175.702V175.702V175.702V175.702V175.702V175.703V175.703V175.703V175.703V175.703V175.703V175.703V175.703V175.703V175.703V175.703V175.703V175.703V175.703V175.703V175.703V175.703V175.703V175.703V175.703V175.703V175.703V175.703V175.703V175.703V175.703V175.704V175.704V175.704V175.704V175.704V175.704V175.704V175.704V175.704V175.704V175.704V175.704V175.704V175.704V175.704V175.704V175.704V175.704V175.704V175.704V175.704V175.704V175.704V175.704V175.704V175.704V175.704V175.704V175.705V175.705V175.705V175.705V175.705V175.705V175.705V175.705V175.705V175.705V175.705V175.705V175.705V175.705V175.705V175.705V175.705V175.705V175.705V175.705V175.705V175.705V175.705V175.706V175.706V175.706V175.706V175.706V175.706V175.706V175.706V175.706V175.706V175.706V175.706V175.706V175.706V175.706V175.706V175.706V175.706V175.707V175.707V175.707V175.707V175.707V175.707V175.707V175.707V175.707V175.707V175.707V175.707V175.707V175.707V175.707V175.707V175.708V175.708V175.708V175.708V175.708V175.708V175.708V175.708V175.708V175.708V175.708V175.708V175.708V175.708V175.709V175.709V175.709V175.709V175.709V175.709V175.709V175.709V175.709V175.709V175.709V175.709V175.71V175.71V175.71V175.71V175.71V175.71V175.71V175.71V175.71V175.71V175.71V175.711V175.711V175.711V175.711V175.711V175.711V175.711V175.711V175.711V175.711V175.711V175.712V175.712V175.712V175.712V175.712V175.712V175.712V175.712V175.712V175.713V175.713V175.713V175.713V175.713V175.713V175.713V175.713V175.713V175.713V175.714V175.714V175.714V175.714V175.714V175.714V175.714V175.714V175.715V175.715V175.715V175.715V175.715V175.715V175.715V175.715V175.716V175.716V175.716V175.716V175.716V175.716V175.716V175.716V175.717V175.717V175.717V175.717V175.717V175.717V175.717V175.718V175.718V175.718V175.718V175.718V175.718V175.718V175.719V175.719V175.719V175.719V175.719V175.719V175.719V175.72V175.72V175.72V175.72V175.72V175.72V175.72V175.721V175.721V175.721V175.721V175.721V175.721V175.722V175.722V175.722V175.722V175.722V175.722V175.723V175.723V175.723V175.723V175.723V175.723V175.724V175.724V175.724V175.724V175.724V175.724V175.725V175.725V175.725V175.725V175.725V175.726V175.726V175.726V175.726V175.726V175.727V175.727V175.727V175.727V175.727V175.727V175.728V175.728V175.728V175.728V175.728V175.729V175.729V175.729V175.729V175.729V175.73V175.73V175.73V175.73V175.731V175.731V175.731V175.731V175.731V175.732V175.732V175.732V175.732V175.732V175.733V175.733V175.733V175.733V175.734V175.734V175.734V175.734V175.734V175.735V175.735V175.735V175.735V175.736V175.736V175.736V175.736V175.737V175.737V175.737V175.737V175.738V175.738V175.738V175.738V175.739V175.739V175.739V175.739V175.74V175.74V175.74V175.74V175.741V175.741V175.741V175.741V175.742V175.742V175.742V175.742V175.743V175.743V175.743V175.743V175.744V175.744V175.744V175.745V175.745V175.745V175.745V175.746V175.746V175.746V175.746V175.747V175.747V175.747V175.748V175.748V175.748V175.748V175.749V175.749V175.749V175.75V175.75V175.75V175.751V175.751V175.751V175.751V175.752V175.752V175.752V175.753V175.753V175.753V175.754V175.754V175.754V175.755V175.755V175.755V175.755V175.756V175.756V175.756V175.757V175.757V175.757V175.758V175.758V175.758V175.759V175.759V175.759V175.76C152.01 175.84 152.03 175.904 152.045 175.943C152.052 175.963 152.061 175.982 152.068 175.997V176.098L152.168 176.198L152.17 176.202C152.186 176.234 152.224 176.312 152.3 176.387L152.583 176.105L152.3 176.387C152.438 176.526 152.593 176.555 152.687 176.561C152.702 176.568 152.722 176.577 152.744 176.585C152.783 176.6 152.847 176.62 152.927 176.62L152.937 176.62C152.987 176.62 153.06 176.62 153.137 176.607C153.224 176.593 153.301 176.565 153.38 176.527C153.961 176.288 154.649 176.284 155.3 176.531C155.885 176.807 156.407 177.53 156.737 178.685C157.005 179.651 156.987 180.543 156.702 181.362C156.415 182.184 155.848 182.96 154.974 183.67L154.974 183.67L154.97 183.673C154.333 184.204 153.588 184.636 152.783 184.964C152.224 185.011 151.868 185.514 151.958 186.059ZM148.554 193.009C148.553 193.004 148.553 193.005 148.554 193.011C148.554 193.01 148.554 193.01 148.554 193.009Z" fill="#203A64" stroke="#203A64" stroke-width="0.8"/>
<path d="M128.302 167.966L128.302 167.965C128.116 167.499 127.553 167.19 127.035 167.397C126.57 167.584 126.261 168.145 126.466 168.662C126.927 169.855 126.88 170.736 126.621 171.35C126.361 171.967 125.865 172.37 125.323 172.567L125.323 172.567L125.313 172.571C123.964 173.101 122.051 172.476 121.073 170.007C121.007 169.743 120.822 169.555 120.626 169.446C120.421 169.332 120.167 169.282 119.922 169.331C119.637 169.388 119.435 169.582 119.32 169.788C119.213 169.982 119.163 170.219 119.199 170.451C119.199 170.462 119.2 170.475 119.201 170.487C119.205 170.531 119.217 170.588 119.248 170.65C119.268 170.691 119.292 170.723 119.31 170.745C120.352 173.423 122.483 174.665 124.425 174.665C125.002 174.665 125.509 174.537 125.995 174.355C127.044 174.003 127.951 173.222 128.427 172.109C128.907 170.99 128.938 169.571 128.302 167.966Z" fill="#203A64" stroke="#203A64" stroke-width="0.8"/>
<path d="M141.266 190.267L141.266 190.267L141.266 190.274C141.144 191.853 141.566 193.501 142.546 194.792C142.756 195.097 143.069 195.189 143.331 195.189C143.544 195.189 143.736 195.091 143.835 195.041C143.842 195.038 143.849 195.034 143.855 195.031L143.868 195.025L143.882 195.017C144.388 194.712 144.458 194.108 144.191 193.663L144.18 193.644L144.166 193.626C143.475 192.722 143.109 191.615 143.211 190.462C143.313 189.665 143.763 188.962 144.42 188.506C145.872 187.505 148.499 187.691 150.292 190.348C150.598 190.846 151.197 190.913 151.639 190.647C151.878 190.504 152.04 190.275 152.08 190.004C152.12 189.741 152.038 189.478 151.87 189.261C149.404 185.72 145.604 185.353 143.277 186.985C142.153 187.737 141.393 188.932 141.266 190.267Z" fill="#203A64" stroke="#203A64" stroke-width="0.8"/>
<path d="M132.035 179.845L132.009 179.843L131.982 179.845C131.319 179.892 130.713 179.613 130.335 179.106C130.063 178.618 130.135 177.826 130.856 176.66L130.856 176.66L130.859 176.655C131.156 176.161 130.947 175.598 130.584 175.325L130.567 175.312L130.55 175.302C130.056 175.005 129.492 175.214 129.219 175.577L129.21 175.59L129.201 175.603C128.193 177.196 128.084 178.48 128.357 179.379C126.532 180.502 125.986 181.854 125.922 182.92C125.795 184.722 126.948 186.565 128.853 187.875L128.855 187.876C130.532 189.015 132.565 189.612 134.539 189.612C135.914 189.612 137.291 189.314 138.551 188.716C139.064 188.502 139.225 187.915 139.052 187.465C138.958 187.193 138.762 186.984 138.506 186.889C138.256 186.797 137.981 186.826 137.745 186.959C135.236 188.098 132.232 187.824 129.937 186.294C128.495 185.295 127.766 184.088 127.813 183.082C127.856 182.361 128.381 181.645 129.447 181.011C130.16 181.533 130.981 181.794 131.895 181.794H132.002C133.467 181.854 134.845 181.036 135.606 179.798C135.995 179.365 135.832 178.787 135.511 178.466C135.075 178.03 134.471 178.193 134.141 178.524C134.139 178.526 134.137 178.528 134.135 178.53C134.081 178.584 133.965 178.7 133.924 178.894C133.476 179.539 132.772 179.891 132.035 179.845Z" fill="#203A64" stroke="#203A64" stroke-width="0.8"/>
<path d="M119.461 179.212L119.452 179.206L119.442 179.201C116.67 177.722 113.274 178.646 111.669 181.362C111.367 181.867 111.591 182.446 112.037 182.714C112.542 183.017 113.121 182.794 113.389 182.349C114.484 180.577 116.717 179.953 118.537 180.879C118.822 181.063 119.116 181.319 119.255 181.67C119.386 182.003 119.408 182.506 118.967 183.26C118.701 183.705 118.771 184.307 119.277 184.611L119.291 184.619L119.304 184.626C119.388 184.668 119.469 184.698 119.561 184.713C119.638 184.726 119.711 184.726 119.761 184.726C119.764 184.726 119.767 184.726 119.771 184.726C120.156 184.726 120.444 184.525 120.621 184.26L120.629 184.248L120.636 184.235C121.165 183.301 121.336 182.323 121.13 181.426C120.924 180.528 120.348 179.751 119.461 179.212Z" fill="#203A64" stroke="#203A64" stroke-width="0.8"/>
<path d="M140.119 169.437C140.034 170.035 140.037 170.665 140.151 171.287C137.825 170.486 135.22 171.002 133.403 172.709L133.403 172.709L133.394 172.718C133.008 173.104 133.008 173.702 133.394 174.088L133.676 173.807L133.394 174.088C133.57 174.264 133.79 174.371 134.028 174.384C134.265 174.397 134.485 174.317 134.664 174.183L134.679 174.171L134.693 174.159C135.84 173.118 137.091 172.805 138.292 172.924C139.498 173.043 140.671 173.601 141.63 174.336C142.01 174.716 142.364 175.07 142.776 175.37C144.537 177.317 145.426 180.249 143.865 182.487L143.865 182.487L143.86 182.494C143.646 182.815 143.384 183.129 143.075 183.386L143.061 183.398L143.048 183.41C142.667 183.792 142.671 184.361 142.953 184.738L142.971 184.761L142.991 184.781C143.185 184.976 143.462 185.071 143.676 185.071C143.885 185.071 144.155 184.98 144.349 184.793C144.776 184.424 145.139 183.999 145.438 183.581L145.438 183.581L145.442 183.576C147.068 181.219 146.784 178.525 145.689 176.268C146.426 176.226 147.149 175.987 147.77 175.597C148.214 175.396 148.501 174.85 148.3 174.347C148.12 173.896 147.588 173.592 147.085 173.76C146.975 173.782 146.895 173.836 146.855 173.866C146.818 173.894 146.783 173.926 146.758 173.951C145.939 174.46 144.829 174.418 143.991 173.842C143.663 173.514 143.323 173.175 142.929 172.835C142.201 171.938 141.849 170.851 142.003 169.72L142.004 169.719C142.1 168.994 142.532 168.41 143.176 168.063L143.228 168.036L143.269 167.994C143.599 167.664 143.763 167.06 143.327 166.624C143.051 166.348 142.675 166.256 142.315 166.346L142.263 166.359L142.217 166.384C141.07 167.022 140.31 168.166 140.12 169.434L140.12 169.434L140.119 169.437Z" fill="#203A64" stroke="#203A64" stroke-width="0.8"/>
<defs>
<filter id="filter0_b" x="24.8096" y="111" width="218.617" height="344" filterUnits="userSpaceOnUse" color-interpolation-filters="sRGB">
<feFlood flood-opacity="0" result="BackgroundImageFix"/>
<feGaussianBlur in="BackgroundImage" stdDeviation="10"/>
<feComposite in2="SourceAlpha" operator="in" result="effect1_backgroundBlur"/>
<feBlend mode="normal" in="SourceGraphic" in2="effect1_backgroundBlur" result="shape"/>
</filter>
<linearGradient id="paint0_linear" x1="181.302" y1="48.7791" x2="181.302" y2="334.976" gradientUnits="userSpaceOnUse">
<stop stop-color="#D91A82"/>
<stop offset="1" stop-color="#D91A82" stop-opacity="0"/>
</linearGradient>
<linearGradient id="paint1_linear" x1="66.1761" y1="72.423" x2="66.1761" y2="145.978" gradientUnits="userSpaceOnUse">
<stop stop-color="#D91A82"/>
<stop offset="1" stop-color="#D91A82" stop-opacity="0"/>
</linearGradient>
<linearGradient id="paint2_linear" x1="181.708" y1="330.091" x2="270.641" y2="205.032" gradientUnits="userSpaceOnUse">
<stop stop-color="#D91A82"/>
<stop offset="1" stop-color="#D91A82" stop-opacity="0"/>
</linearGradient>
<linearGradient id="paint3_linear" x1="32.9495" y1="138.507" x2="100.184" y2="61.1943" gradientUnits="userSpaceOnUse">
<stop stop-color="#D91A82"/>
<stop offset="1" stop-color="#D91A82" stop-opacity="0"/>
</linearGradient>
</defs>
</svg>
