<svg width="159" height="40" xmlns="http://www.w3.org/2000/svg">

 <g>
  <title>background</title>
  <rect fill="none" id="canvas_background" height="42" width="161" y="-1" x="-1"/>
 </g>
 <g>
  <title>Layer 1</title>
  <g id="logo">
   <g id="Vector">
    <path fill="#D91A82" d="m18.3928,34.8649l0,-5.2056l-4.5977,-4.555l4.5977,-4.5549l0,-5.2056l-9.80174,9.7605l9.80174,9.7606z" id="Vector_2"/>
   </g>
   <g id="Vector_3">
    <path fill="#D91A82" d="m0,39.77l29.6578,0l0,-29.3318l-29.6578,0l0,29.3318zm3.68828,-25.6778l22.23072,0l0,22.0239l-22.23072,0l0,-22.0239z" id="Vector_4"/>
   </g>
   <g id="Group 19008">
    <g id="Vector_5">
     <path fill="white" d="m45.8765,27.0728c1.3641,0 2.8798,0.5006 4.4461,1.4516c0.101,-0.2002 0.2021,-0.7007 0.1516,-1.6518c0,-0.9009 -0.0506,-1.5016 -0.1516,-1.7519c-1.2631,-0.7508 -2.8294,-1.1512 -4.6482,-1.1512c-2.6273,0 -4.6988,0.7508 -6.2651,2.3025c-1.5662,1.5016 -2.3241,3.4037 -2.3241,5.6561c0,2.2525 0.7579,4.1045 2.3241,5.6561c1.5663,1.5017 3.6883,2.3025 6.2651,2.3025c1.8188,0 3.3851,-0.4004 4.6482,-1.1512c0.101,-0.2503 0.1516,-0.8509 0.1516,-1.7519c0,-0.901 -0.0506,-1.4516 -0.1516,-1.6518c-1.5663,0.951 -3.0315,1.4516 -4.4461,1.4516c-1.4147,0 -2.6273,-0.4505 -3.5873,-1.3014c-0.9599,-0.901 -1.4147,-2.0523 -1.4147,-3.5038c0,-1.4516 0.4548,-2.6529 1.4147,-3.5038c0.96,-0.9511 2.1726,-1.4016 3.5873,-1.4016z" id="Vector_6"/>
    </g>
    <g id="Vector_7">
     <path fill="white" d="m67.6018,39.436l0,-15.1164c-1.0105,-0.1502 -1.9705,-0.1502 -2.9305,0l-7.1239,8.8596l0,-8.8596c-1.2631,-0.2002 -2.5262,-0.2002 -3.7388,0l0,15.1164c1.0105,0.1502 1.9704,0.1502 2.9304,0l7.1239,-8.8596l0,8.8596c1.2632,0.2503 2.5263,0.2503 3.7389,0z" id="Vector_8"/>
    </g>
    <g id="Vector_9">
     <path fill="white" d="m85.0844,39.436l0,-15.1164c-1.2631,-0.2002 -2.5262,-0.2002 -3.7388,0l0,5.9565l-6.3155,0l0,-5.9565c-1.2631,-0.2002 -2.5263,-0.2002 -3.7388,0l0,15.1164c1.2631,0.2002 2.5262,0.2002 3.7388,0l0,-6.0566l6.3155,0l0,6.1066c1.2126,0.2003 2.4757,0.2003 3.7388,-0.05z" id="Vector_10"/>
    </g>
    <g id="Vector_11">
     <path fill="white" d="m99.3816,27.4232c0.2021,-1.0011 0.2021,-2.0522 0,-3.1034l-10.6607,0l0,15.1164l10.6607,0c0.2021,-1.0511 0.2021,-2.0522 0,-3.1033l-6.9219,0l0,-3.0033l6.063,0c0.2021,-1.0011 0.2021,-2.0522 0,-3.1034l-6.063,0l0,-2.8531l6.9219,0l0,0.0501z" id="Vector_12"/>
    </g>
    <g id="Vector_13">
     <path fill="white" d="m112.67,25.7213c-1.061,-0.951 -2.425,-1.4015 -4.143,-1.4015l-6.013,0l0,15.1164c1.264,0.2002 2.527,0.2002 3.739,0l0,-4.9554l2.223,0c1.718,0 3.082,-0.4504 4.143,-1.4015c1.061,-0.951 1.617,-2.1523 1.617,-3.6539c0.051,-1.5517 -0.505,-2.753 -1.566,-3.7041zm-4.143,5.6562l-2.223,0l0,-3.9543l2.223,0c1.111,0 1.92,0.6507 1.92,2.0022c0,1.3014 -0.809,1.9521 -1.92,1.9521z" id="Vector_14"/>
    </g>
    <g id="Vector_15">
     <path fill="white" d="m117.065,39.4362c1.264,0.2002 2.527,0.2002 3.739,0l0,-12.013l6.316,0c0.202,-1.0011 0.202,-2.0522 0,-3.1034l-10.055,0l0,15.1164z" id="Vector_16"/>
    </g>
    <g id="Vector_17">
     <path fill="white" d="m129.848,24.3196l0,15.1164c1.01,0.1502 1.97,0.1502 2.93,0l7.124,-8.8596l0,8.8596c1.263,0.2002 2.526,0.2002 3.739,0l0,-15.1164c-1.011,-0.1502 -1.971,-0.1502 -2.931,0l-7.124,8.8596l0,-8.8596c-1.212,-0.2002 -2.475,-0.2002 -3.738,0z" id="Vector_18"/>
    </g>
    <g id="Vector_19">
     <path fill="white" d="m147.076,29.3253c0,2.0021 1.112,3.6539 2.931,4.4548l-3.689,5.6561c0.556,0.1001 1.213,0.1502 2.021,0.1502c0.809,0 1.516,-0.0501 2.072,-0.1502l3.031,-4.605l0.354,-0.5005l1.465,0l0,5.1055c1.263,0.2002 2.526,0.2002 3.739,0l0,-10.5614l0,-4.555l-6.164,0c-1.718,0 -3.082,0.4505 -4.143,1.4015c-1.112,0.901 -1.617,2.1023 -1.617,3.604zm5.76,-1.9021l2.324,0l0,0.6006l0,3.2035l-1.819,0l-0.556,0c-1.111,0 -1.919,-0.6507 -1.919,-1.902c0,-1.2014 0.858,-1.9021 1.97,-1.9021z" id="Vector_20"/>
    </g>
   </g>
   <path fill="white" d="m42.44046,18l-5.2996,0l0,-7.5881l1.7464,0l0,5.9019l2.7101,0l0,-5.9019l1.7465,0l0,5.9019l0.8431,0l0,3.1316l-1.7465,0l0,-1.4454zm3.0131,-7.5881l5.42,0l0,1.6862l-3.6736,0l0,1.2045l3.3725,0l0,1.6862l-3.3725,0l0,1.325l3.7941,0l0,1.6862l-5.5405,0l0,-7.5881zm13.4848,0l0,7.5881l-1.7465,0l0,-3.0112l-2.8907,0l0,3.0112l-1.7465,0l0,-7.5881l1.7465,0l0,2.8907l2.8907,0l0,-2.8907l1.7465,0zm5.1237,7.5881l-1.7465,0l0,-5.9019l-2.168,0l0,-1.6862l6.0825,0l0,1.6862l-2.168,0l0,5.9019zm6.3281,-7.5881c0.3935,0 0.7548,0.0682 1.084,0.2047c0.3292,0.1285 0.6143,0.3132 0.8552,0.5541c0.2409,0.2329 0.4296,0.5059 0.5661,0.819c0.1365,0.3132 0.2047,0.6504 0.2047,1.0118c0,0.3613 -0.0682,0.6986 -0.2047,1.0117c-0.1365,0.3132 -0.3252,0.5902 -0.5661,0.8311c-0.2409,0.2329 -0.526,0.4176 -0.8552,0.5541c-0.3292,0.1284 -0.6905,0.1927 -1.084,0.1927l-1.2045,0l0,2.4089l-1.7464,0l0,-7.5881l2.9509,0zm0,3.4929c0.273,0 0.5019,-0.0883 0.6865,-0.265c0.1847,-0.1846 0.2771,-0.3974 0.2771,-0.6383c0,-0.2409 -0.0924,-0.4497 -0.2771,-0.6263c-0.1846,-0.1847 -0.4135,-0.2771 -0.6865,-0.2771l-1.2045,0l0,1.8067l1.2045,0zm16.1351,-3.4929l0,4.5167l3.0714,-4.5167l1.5658,0l0,7.5881l-1.7465,0l0,-4.5167l-3.0713,4.5167l-1.5659,0l0,-7.5881l1.7465,0zm12.8323,0l0,7.5881l-1.7465,0l0,-3.0112l-2.8907,0l0,3.0112l-1.7465,0l0,-7.5881l1.7465,0l0,2.8907l2.8907,0l0,-2.8907l1.7465,0zm5.1233,7.5881l-1.746,0l0,-5.9019l-2.168,0l0,-1.6862l6.082,0l0,1.6862l-2.168,0l0,5.9019zm3.378,-7.5881l5.42,0l0,1.6862l-3.674,0l0,1.2045l3.373,0l0,1.6862l-3.373,0l0,1.325l3.794,0l0,1.6862l-5.54,0l0,-7.5881zm13.424,0l0,7.5881l-1.746,0l0,-5.9019l-2.048,0l-0.301,3.6134c-0.064,0.7548 -0.293,1.337 -0.687,1.7465c-0.393,0.4015 -0.907,0.6022 -1.541,0.6022c-0.097,0 -0.189,-0.004 -0.277,-0.012c-0.089,0 -0.165,-0.004 -0.229,-0.0121c-0.08,-0.008 -0.153,-0.02 -0.217,-0.0361l0,-1.5056l0.241,0c0.273,0 0.502,-0.1004 0.686,-0.3011c0.193,-0.2007 0.306,-0.4818 0.338,-0.8431l0.421,-4.9383l5.36,0zm8.125,0l0,7.5881l-1.747,0l0,-5.9019l-2.047,0l-0.302,3.6134c-0.064,0.7548 -0.293,1.337 -0.686,1.7465c-0.394,0.4015 -0.907,0.6022 -1.542,0.6022c-0.096,0 -0.188,-0.004 -0.277,-0.012c-0.088,0 -0.164,-0.004 -0.229,-0.0121c-0.08,-0.008 -0.152,-0.02 -0.216,-0.0361l0,-1.5056l0.24,0c0.273,0 0.502,-0.1004 0.687,-0.3011c0.193,-0.2007 0.305,-0.4818 0.337,-0.8431l0.422,-4.9383l5.36,0zm1.801,0l5.42,0l0,1.6862l-3.674,0l0,1.2045l3.373,0l0,1.6862l-3.373,0l0,1.325l3.794,0l0,1.6862l-5.54,0l0,-7.5881zm11.316,7.5881l-2.469,-3.3725l0,3.3725l-1.746,0l0,-7.5881l1.746,0l0,3.252l2.289,-3.252l1.987,0l-2.674,3.7338l2.855,3.8543l-1.988,0zm6.269,0l-1.747,0l0,-5.9019l-2.168,0l0,-1.6862l6.083,0l0,1.6862l-2.168,0l0,5.9019zm6.568,-2.9509l-0.843,-2.5294l-0.843,2.5294l1.686,0zm-2.168,1.5055l-0.481,1.4454l-1.807,0l2.71,-7.5881l1.807,0l2.71,7.5881l-1.807,0l-0.482,-1.4454l-2.65,0z" id="Центра Интеллекта"/>
  </g>
 </g>
</svg>