<svg width="36" height="36" viewBox="0 0 36 36" fill="none" xmlns="http://www.w3.org/2000/svg">
<path d="M17.9 0C8 0 0 8 0 17.9C0 27.8 8 35.8 17.9 35.8C27.8 35.8 35.8 27.8 35.8 17.9C35.9 8 27.8 0 17.9 0ZM28.3 27.6L24.5 30.4C24.3 30.5 24.1 30.7 23.8 30.7C23.5 30.8 23.3 30.8 23.1 30.8C23.1 30.8 23 30.8 22.9 30.8C22.8 30.8 22.7 30.8 22.6 30.8C22.3 30.8 21.8 30.6 21.1 30.4C20.4 30.2 19.6 29.8 18.6 29.2C17.6 28.6 16.6 27.8 15.4 26.7C14.2 25.6 13 24.3 11.8 22.5C10.8 21.2 10 19.9 9.4 18.7C8.8 17.5 8.3 16.5 8 15.5C7.7 14.5 7.4 13.7 7.3 12.9C7.2 12.1 7.1 11.5 7.1 10.9C7.1 10.4 7.1 9.9 7.2 9.6C7.3 9.3 7.3 9.1 7.3 9.1C7.4 8.9 7.5 8.6 7.6 8.4C7.8 8.2 7.9 8 8.1 7.9L12 5.3C12.3 5.1 12.6 5 12.9 5.1C13.1 5.1 13.3 5.2 13.4 5.4C13.5 5.6 13.7 5.7 13.8 5.9L15.7 11.4C15.8 11.7 15.8 12 15.7 12.3C15.6 12.6 15.4 12.9 15.2 13L13.8 14L13.7 14.1C13.7 14.2 13.6 14.2 13.6 14.3C13.6 14.7 13.7 15.1 13.9 15.6C14 16 14.3 16.6 14.6 17.2C14.9 17.8 15.4 18.6 16.1 19.5C16.7 20.4 17.3 21.1 17.8 21.6C18.3 22.1 18.8 22.5 19.1 22.8C19.5 23.1 19.7 23.2 19.9 23.3L20.2 23.4C20.2 23.4 20.3 23.4 20.4 23.4C20.5 23.4 20.5 23.4 20.6 23.3L22.3 22.1C22.6 21.9 23 21.8 23.4 21.9C23.7 21.9 23.9 22 24.1 22.2L28.5 25.8C28.8 26.1 29 26.4 29 26.7C28.8 27 28.6 27.3 28.3 27.6Z" fill="white"/>
</svg>
